<svg width="24" height="24" viewBox="0 0 24 24" fill="none" xmlns="http://www.w3.org/2000/svg">
<path d="M4.5 11.1878V15.6818C4.5 18.4688 4.5 19.8622 5.11176 20.4711C5.40352 20.7615 5.77179 20.944 6.1641 20.9924C6.98668 21.0941 7.94729 20.1764 9.86847 18.3412C10.7177 17.5301 11.1423 17.1244 11.6336 17.0176C11.8755 16.965 12.1245 16.965 12.3664 17.0176C12.8577 17.1244 13.2823 17.5301 14.1315 18.3412C16.0527 20.1764 17.0133 21.0941 17.8359 20.9924C18.2282 20.944 18.5965 20.7615 18.8882 20.4711C19.5 19.8622 19.5 18.4688 19.5 15.6818V11.1878C19.5 7.32803 19.5 5.39814 18.4017 4.19907C17.3033 3 15.5355 3 12 3C8.46447 3 6.6967 3 5.59835 4.19907C4.92567 4.93345 4.66497 5.94193 4.56393 7.50001" stroke="#8C8994" stroke-width="1.5" stroke-linecap="round"/>
<path d="M9.61581 9.30881C8.63194 9.53142 8.14001 9.64272 8.02297 10.0191C7.90593 10.3954 8.2413 10.7876 8.91204 11.572L9.08557 11.7749C9.27617 11.9978 9.37147 12.1092 9.41434 12.2471C9.45722 12.385 9.44281 12.5336 9.41399 12.831L9.38776 13.1018C9.28635 14.1482 9.23565 14.6715 9.54206 14.9041C9.84847 15.1367 10.3091 14.9246 11.2303 14.5005L11.4686 14.3907C11.7304 14.2702 11.8612 14.2099 12 14.2099C12.1388 14.2099 12.2696 14.2702 12.5314 14.3907L12.7697 14.5005C13.6909 14.9246 14.1515 15.1367 14.458 14.9041C14.7644 14.6715 14.7136 14.1482 14.6122 13.1018M15.088 11.572C15.7587 10.7876 16.0941 10.3954 15.977 10.0191C15.86 9.64272 15.368 9.53142 14.3842 9.30881L14.1296 9.25122C13.85 9.18796 13.7103 9.15633 13.598 9.07112C13.4858 8.98591 13.4138 8.85677 13.2698 8.59849L13.1387 8.36335C12.6321 7.45445 12.3788 7 12 7C11.6212 7 11.3679 7.45445 10.8613 8.36335" stroke="#8C8994" stroke-linecap="round"/>
<path d="M14.2332 5H9.8999" stroke="#8C8994" stroke-linecap="round"/>
</svg>
