<svg width="36" height="36" viewBox="0 0 36 36" fill="none" xmlns="http://www.w3.org/2000/svg">
<rect width="36" height="36" rx="7" fill="#FAF8FF"/>
<path d="M15.4784 18.3641C15.4866 17.5 15.7272 16.6528 16.1767 15.9053C16.6262 15.1579 17.2692 14.536 18.0427 14.1003C18.1967 13.9829 18.3795 13.906 18.5735 13.8771C18.7674 13.8482 18.9657 13.8682 19.1492 13.9353C19.3327 14.0023 19.4951 14.1141 19.6205 14.2597C19.7459 14.4053 19.8301 14.5797 19.8649 14.766C20.0542 15.3021 20.2833 15.8254 20.4669 16.3632C20.5159 16.5247 20.6082 16.6708 20.7345 16.7867C20.8609 16.9027 21.0167 16.9844 21.1863 17.0235C21.7486 17.1796 22.3109 17.334 22.8703 17.4965C22.9438 17.5099 23.0138 17.5374 23.0762 17.5772C23.1386 17.617 23.1921 17.6685 23.2337 17.7285C23.2752 17.7886 23.3039 17.856 23.3181 17.9269C23.3322 17.9977 23.3316 18.0706 23.3162 18.1413C23.3076 18.2175 23.2822 18.2911 23.2417 18.357C23.2011 18.4229 23.1464 18.4797 23.0812 18.5235C23.016 18.5673 22.9417 18.5971 22.8635 18.6109C22.7854 18.6247 22.7051 18.6221 22.628 18.6034C22.0648 18.5276 21.5034 18.4426 20.9449 18.3385C20.5262 18.278 20.1291 18.1196 19.7882 17.8772C19.4474 17.6348 19.1731 17.3157 18.9893 16.9477C18.8947 16.765 18.7791 16.5906 18.6551 16.3824C18.2198 16.7916 17.9274 17.3215 17.8184 17.8984C17.7493 18.1632 17.8184 18.2892 18.091 18.3796C18.9013 18.6472 19.7059 18.933 20.5067 19.2271C20.6662 19.264 20.8135 19.3392 20.935 19.4456C21.0564 19.5519 21.1482 19.6861 21.2018 19.8357C21.2553 19.9853 21.269 20.1455 21.2414 20.3015C21.2139 20.4575 21.1461 20.6043 21.0443 20.7284C20.643 21.3677 20.2132 21.9905 19.7882 22.616C19.4872 23.0589 19.4815 23.0553 19.7882 23.5046C19.8072 23.532 19.8403 23.5603 19.8403 23.5877C19.8403 23.7347 19.8867 23.9283 19.809 24.016C19.7519 24.0703 19.6826 24.1111 19.6064 24.1352C19.5301 24.1593 19.4492 24.166 19.3698 24.1548C18.9614 24.0432 18.5616 23.904 18.1734 23.7384C18.0978 23.7146 18.0288 23.6747 17.9714 23.6218C17.914 23.5688 17.8697 23.5041 17.8417 23.4324C17.8137 23.3607 17.8028 23.2838 17.8097 23.2074C17.8167 23.1311 17.8413 23.0573 17.8818 22.9914C18.1791 22.3016 18.4772 21.6118 18.7763 20.922C18.8009 20.8645 18.8189 20.8051 18.8445 20.7394C18.2112 20.5567 17.5922 20.3795 16.9797 20.1914C16.7102 20.1192 16.4505 20.0162 16.2063 19.8846C15.9488 19.7231 15.7438 19.4947 15.615 19.2257C15.4862 18.9566 15.4388 18.6579 15.4784 18.3641Z" fill="#7B4CDF"/>
<path d="M14.0235 19.191C13.4717 19.1974 12.9189 19.1855 12.367 19.1965C12.1383 19.2012 11.9106 19.2279 11.6873 19.2759C11.218 19.3716 10.7853 19.5907 10.4371 19.9091C10.0889 20.2274 9.83886 20.6325 9.71466 21.0795L9.51592 21.6539L9.39667 21.6402C9.22118 21.2459 9.15597 20.814 9.20763 20.3877C9.25929 19.9615 9.42592 19.5557 9.69097 19.2111C9.15899 19.1006 8.89494 18.8586 8.88547 18.4422C8.86023 17.3652 8.84324 16.2879 8.8344 15.2103C8.82881 15.109 8.84512 15.0077 8.88235 14.9128C8.91959 14.8179 8.97686 14.7315 9.0506 14.6592C9.12433 14.5869 9.21287 14.5301 9.31058 14.4926C9.40829 14.4551 9.51297 14.4377 9.61806 14.4414C10.7817 14.431 11.9455 14.431 13.1092 14.4414C13.3378 14.4413 13.5588 14.521 13.7312 14.6659C13.9036 14.8108 14.0159 15.011 14.0472 15.2295C14.2593 16.2937 14.4684 17.3591 14.6748 18.4257C14.7028 18.5193 14.7067 18.6181 14.6863 18.7136C14.6659 18.809 14.6218 18.8982 14.5577 18.9735C14.4936 19.0489 14.4115 19.108 14.3184 19.1459C14.2254 19.1838 14.1242 19.1992 14.0235 19.191Z" fill="#7B4CDF"/>
<path d="M23.113 20.2038C23.2882 20.1189 23.3592 20.0376 23.2844 19.8485C23.2311 19.6998 23.1906 19.5471 23.1633 19.3919C23.1121 19.149 23.1973 18.9828 23.3866 18.9353C23.5939 18.8814 23.7586 18.991 23.8277 19.2358C23.8902 19.4559 23.946 19.6787 24.0104 19.9243C24.2406 19.912 24.4713 19.912 24.7015 19.9243C25.2711 19.9923 25.8056 20.2268 26.233 20.5964C26.6605 20.966 26.9604 21.453 27.0925 21.9919C27.2235 22.5319 27.1808 23.0977 26.9701 23.6137C26.7594 24.1298 26.3907 24.5716 25.9131 24.8804C25.4353 25.1851 24.8723 25.3415 24.2997 25.3286C23.7272 25.3157 23.1723 25.1341 22.7098 24.8082C22.324 24.5327 22.0177 24.1665 21.8199 23.7446C21.6222 23.3226 21.5396 22.8589 21.58 22.3975C21.6204 21.936 21.7825 21.4922 22.0508 21.1083C22.3191 20.7243 22.6848 20.413 23.113 20.2038ZM22.7884 23.19C22.9353 23.5696 23.2235 23.8828 23.5968 24.0685C23.9701 24.2542 24.4017 24.2991 24.8075 24.1945C25.2224 24.0834 25.578 23.8241 25.8021 23.4693C26.0263 23.1146 26.1021 22.6908 26.0143 22.2841C25.9345 21.9058 25.7149 21.5684 25.3964 21.3347C25.0779 21.1011 24.6822 20.987 24.2831 21.0138C24.3578 21.2932 24.425 21.5681 24.5102 21.8357C24.5244 21.8823 24.6049 21.9142 24.6655 21.9435C24.7638 21.9843 24.852 22.0447 24.9244 22.1208C24.9967 22.1969 25.0515 22.287 25.0851 22.385C25.1187 22.483 25.1304 22.5868 25.1195 22.6895C25.1085 22.7922 25.075 22.8915 25.0214 22.9809C24.9704 23.0662 24.9022 23.1408 24.8206 23.2001C24.739 23.2593 24.6459 23.302 24.5467 23.3257C24.4476 23.3493 24.3446 23.3533 24.2438 23.3376C24.143 23.3218 24.0466 23.2865 23.9603 23.2338C23.8712 23.1771 23.7953 23.1032 23.7374 23.0168C23.6794 22.9304 23.6406 22.8334 23.6234 22.7318C23.6063 22.6302 23.6111 22.5263 23.6376 22.4266C23.6642 22.3269 23.7118 22.2336 23.7776 22.1526C23.8264 22.0742 23.8448 21.9817 23.8296 21.8914C23.7832 21.6512 23.7113 21.4165 23.6403 21.1608C23.2614 21.3354 22.9639 21.6405 22.8063 22.0159C22.6486 22.3914 22.6422 22.8102 22.7884 23.19Z" fill="#7B4CDF"/>
<path d="M12.9886 19.9158C13.3575 19.9111 13.7237 19.9776 14.0657 20.1111C14.4077 20.2447 14.7187 20.4428 14.9804 20.6937C15.2421 20.9447 15.4494 21.2435 15.5899 21.5726C15.7305 21.9018 15.8015 22.2547 15.799 22.6106C15.8022 22.9664 15.7325 23.3193 15.5938 23.649C15.455 23.9787 15.2501 24.2786 14.9907 24.5316C14.7313 24.7845 14.4227 24.9855 14.0825 25.1228C13.7423 25.2602 13.3772 25.3313 13.0084 25.332C12.6395 25.3325 12.2743 25.2626 11.9335 25.1264C11.5927 24.9901 11.2831 24.7902 11.0227 24.5382C10.7623 24.2861 10.5561 23.9868 10.4161 23.6576C10.276 23.3283 10.2048 22.9757 10.2066 22.6198C10.2048 21.9056 10.4967 21.2198 11.0182 20.7129C11.5397 20.2061 12.2483 19.9194 12.9886 19.9158ZM13.0094 24.2517C13.4562 24.2469 13.8832 24.073 14.1984 23.7674C14.5135 23.4618 14.6916 23.049 14.6943 22.6179C14.6911 22.1861 14.5118 21.7728 14.1953 21.4674C13.8787 21.1621 13.4504 20.9891 13.0028 20.986C12.7814 20.9869 12.5624 21.03 12.3585 21.113C12.1545 21.196 11.9697 21.3172 11.8146 21.4695C11.6595 21.6219 11.5372 21.8024 11.4549 22.0006C11.3725 22.1988 11.3318 22.4108 11.3349 22.6243C11.3319 22.8376 11.3729 23.0493 11.4557 23.2471C11.5384 23.4449 11.6613 23.6248 11.8169 23.7764C11.9725 23.9279 12.1578 24.0479 12.362 24.1295C12.5663 24.2111 12.7855 24.2527 13.0066 24.2517H13.0094Z" fill="#7B4CDF"/>
<path d="M22.82 12.5182C22.2647 12.4152 21.7162 12.2802 21.1777 12.1137C20.8236 12.0123 20.6343 12.1201 20.6845 12.4726C20.7378 12.7717 20.807 13.068 20.8918 13.3602C20.9145 13.4742 20.9705 13.5795 21.0532 13.6638C21.1359 13.7481 21.2418 13.8079 21.3585 13.8361C21.8403 13.9603 22.323 14.0808 22.8096 14.1858C23.0368 14.2342 23.0936 14.3082 22.9488 14.4927C22.8587 14.6296 22.7261 14.7356 22.5699 14.7955C22.4136 14.8554 22.2418 14.866 22.0788 14.826C21.4857 14.6913 20.9033 14.5158 20.3362 14.3009C19.9638 14.1496 19.6497 13.8898 19.4378 13.558C19.2258 13.2261 19.1265 12.8387 19.1539 12.4498C19.1953 12.2246 19.257 12.0034 19.3385 11.7886C19.4947 11.4358 19.7609 11.1386 20.1002 10.9383C20.4394 10.738 20.8348 10.6445 21.2316 10.6709C21.6586 10.6931 22.0694 10.8362 22.4126 11.0822C22.7559 11.3282 23.0164 11.6663 23.1617 12.0543C23.3028 12.4269 23.2167 12.5794 22.82 12.5182Z" fill="#7B4CDF"/>
<path d="M25.3779 19.3496C25.1416 19.2878 24.9136 19.1998 24.6983 19.0874C24.5197 18.9976 24.3705 18.8616 24.2674 18.6947C24.1642 18.5278 24.1112 18.3365 24.1142 18.1423C24.1122 17.8486 24.2044 17.5616 24.3781 17.3204C24.5518 17.0793 24.7985 16.8959 25.0844 16.7953C25.1478 16.7478 25.2217 16.715 25.3003 16.6996C25.379 16.6841 25.4602 16.6864 25.5378 16.7062C25.6154 16.726 25.6871 16.7628 25.7476 16.8137C25.808 16.8646 25.8555 16.9283 25.8862 16.9999C26.1365 17.3914 26.2573 17.8472 26.2327 18.3067C26.1781 18.5653 26.1054 18.8201 26.015 19.0692C25.998 19.1318 25.9668 19.1899 25.9237 19.2394C25.8805 19.2889 25.8265 19.3286 25.7655 19.3554C25.7045 19.3822 25.6381 19.3957 25.571 19.3946C25.504 19.3936 25.438 19.3782 25.3779 19.3496Z" fill="#7B4CDF"/>
<path d="M21.0726 12.2768C21.1124 12.2649 21.2317 12.3681 21.2383 12.4293C21.245 12.4905 21.1701 12.5764 21.0925 12.7216C20.9855 12.5873 20.8833 12.5142 20.89 12.4476C20.8966 12.3809 20.996 12.2951 21.0726 12.2768Z" fill="#7B4CDF"/>
<path d="M12.963 21.8862C13.0669 21.88 13.1711 21.8942 13.2692 21.928C13.3673 21.9618 13.4572 22.0144 13.5336 22.0827C13.6099 22.151 13.6711 22.2336 13.7135 22.3254C13.7558 22.4172 13.7785 22.5163 13.7799 22.6167C13.7795 22.8114 13.7019 22.9986 13.563 23.1399C13.4242 23.2811 13.2345 23.3658 13.033 23.3765C12.9309 23.3793 12.8291 23.3626 12.7337 23.3274C12.6383 23.2921 12.5512 23.239 12.4771 23.1711C12.403 23.1032 12.3435 23.0219 12.3022 22.9318C12.2608 22.8416 12.2383 22.7445 12.2359 22.646C12.231 22.5498 12.2459 22.4536 12.28 22.3631C12.314 22.2726 12.3664 22.1896 12.4341 22.1188C12.5018 22.0481 12.5834 21.9911 12.6742 21.9511C12.765 21.9112 12.8632 21.8891 12.963 21.8862Z" fill="#7B4CDF"/>
</svg>
