<svg width="36" height="36" viewBox="0 0 36 36" fill="none" xmlns="http://www.w3.org/2000/svg">
<rect width="36" height="36" rx="7" fill="#FFF6E9"/>
<path d="M27.1634 18.2986C27.1616 19.4434 26.8206 20.562 26.1834 21.513C25.5461 22.4639 24.6414 23.2045 23.5835 23.6412C22.5256 24.0779 21.362 24.191 20.2398 23.9663C19.1176 23.7416 18.0872 23.1891 17.2789 22.3786C16.4706 21.5682 15.9206 20.5363 15.6984 19.4132C15.4763 18.2901 15.592 17.1264 16.0309 16.0691C16.4698 15.0118 17.2122 14.1085 18.1643 13.4732C19.1164 12.8379 20.2354 12.4992 21.3798 12.5C22.1405 12.5004 22.8936 12.6508 23.5962 12.9424C24.2988 13.2341 24.937 13.6614 25.4745 14.1999C26.0119 14.7384 26.4381 15.3775 26.7285 16.0808C27.019 16.784 27.1681 17.5376 27.1673 18.2986H27.1634Z" fill="#F79F1A"/>
<path d="M20.4084 18.2986C20.4066 19.4434 20.0655 20.562 19.4283 21.513C18.7911 22.4639 17.8864 23.2045 16.8284 23.6412C15.7705 24.0779 14.6069 24.191 13.4848 23.9663C12.3626 23.7416 11.3322 23.1891 10.5239 22.3786C9.71553 21.5682 9.16553 20.5363 8.9434 19.4132C8.72126 18.2901 8.83696 17.1264 9.27587 16.0691C9.71478 15.0118 10.4572 14.1085 11.4093 13.4732C12.3613 12.8379 13.4803 12.4992 14.6247 12.5C15.3854 12.5004 16.1386 12.6508 16.8411 12.9424C17.5437 13.2341 18.182 13.6614 18.7194 14.1999C19.2569 14.7384 19.683 15.3775 19.9735 16.0808C20.2639 16.784 20.413 17.5376 20.4123 18.2986H20.4084Z" fill="#EA001B"/>
</svg>
