<svg width="34" height="34" viewBox="0 0 34 34" fill="none" xmlns="http://www.w3.org/2000/svg">
<rect x="0.5" y="0.5" width="32.9607" height="32.9607" fill="#7B4CDF"/>
<path d="M7.51894 16.0905C7.57955 16.2613 7.64017 16.4349 7.70078 16.6112C7.7669 16.7875 7.82751 16.9638 7.88262 17.1402C7.93221 17.2779 7.9818 17.4267 8.03139 17.5865C8.0865 17.7408 8.13884 17.8896 8.18844 18.0328C8.23803 18.1706 8.2766 18.2836 8.30415 18.3717C8.31517 18.4048 8.32619 18.4351 8.33721 18.4626C8.34824 18.4902 8.3565 18.515 8.36201 18.537C8.36752 18.5536 8.37303 18.5701 8.37854 18.5866C8.38405 18.6031 8.38956 18.6169 8.39507 18.6279C8.40609 18.65 8.41436 18.6693 8.41987 18.6858C8.42538 18.7023 8.42813 18.7134 8.42813 18.7189C8.43364 18.7244 8.43915 18.7244 8.44466 18.7189C8.45018 18.7134 8.45569 18.7023 8.4612 18.6858C8.46671 18.6693 8.47497 18.6472 8.48599 18.6197C8.4915 18.6087 8.49701 18.5949 8.50252 18.5784C8.50803 18.5563 8.51354 18.5343 8.51905 18.5122C8.53007 18.4847 8.53834 18.4571 8.54385 18.4296C8.55487 18.402 8.56314 18.3745 8.56865 18.3469C8.5962 18.2532 8.61824 18.1733 8.63477 18.1072C8.65681 18.0356 8.67885 17.9612 8.70089 17.8841C8.72293 17.8014 8.74773 17.705 8.77528 17.5948C8.7863 17.5562 8.79732 17.5149 8.80834 17.4708C8.82487 17.4267 8.8414 17.3771 8.85794 17.322C8.87447 17.2614 8.89375 17.1898 8.91579 17.1071C8.93783 17.0189 8.96539 16.9142 8.99845 16.793C9.04253 16.6222 9.09763 16.4707 9.16376 16.3384C9.22988 16.2062 9.30151 16.1042 9.37866 16.0326C9.46131 15.9555 9.54396 15.9196 9.62662 15.9252C9.70927 15.9252 9.78917 15.972 9.86631 16.0657C9.94346 16.1593 10.0123 16.3081 10.0729 16.512C10.106 16.6167 10.1336 16.7049 10.1556 16.7765C10.1776 16.8426 10.1969 16.9032 10.2135 16.9583C10.23 17.0079 10.2438 17.0548 10.2548 17.0988C10.2713 17.1374 10.2879 17.1815 10.3044 17.2311C10.354 17.3799 10.4008 17.5369 10.4449 17.7022C10.489 17.862 10.5303 18.0135 10.5689 18.1568C10.6074 18.2946 10.6378 18.4103 10.6598 18.504C10.6708 18.5425 10.6791 18.5756 10.6846 18.6031C10.6956 18.6307 10.7039 18.6555 10.7094 18.6775C10.7149 18.6996 10.7177 18.7189 10.7177 18.7354C10.7232 18.7464 10.7287 18.7602 10.7342 18.7767C10.7397 18.7988 10.7424 18.818 10.7424 18.8346C10.748 18.8511 10.7507 18.8621 10.7507 18.8676C10.7507 18.8731 10.748 18.8759 10.7424 18.8759C10.7424 18.8704 10.7424 18.8649 10.7424 18.8594C10.7424 18.8539 10.7424 18.8428 10.7424 18.8263C10.748 18.8098 10.7535 18.7933 10.759 18.7767C10.7645 18.7657 10.77 18.7519 10.7755 18.7354C10.781 18.7189 10.7865 18.7023 10.792 18.6858C10.7975 18.6638 10.8031 18.6417 10.8086 18.6197C10.8196 18.5921 10.8306 18.5618 10.8416 18.5288C10.8527 18.4957 10.8664 18.4571 10.883 18.413C10.9326 18.2698 10.9794 18.132 11.0235 17.9998C11.0731 17.862 11.1199 17.7243 11.164 17.5865C11.2136 17.4487 11.2632 17.3 11.3128 17.1402C11.3624 16.9969 11.4175 16.8316 11.4781 16.6442C11.5387 16.4514 11.5965 16.2695 11.6516 16.0987C11.6957 15.9665 11.7646 15.8783 11.8583 15.8342C11.952 15.7902 12.0456 15.7846 12.1393 15.8177C12.233 15.8508 12.3046 15.9114 12.3542 15.9995C12.4038 16.0877 12.4065 16.1979 12.3625 16.3302C12.3074 16.5065 12.244 16.6911 12.1724 16.8839C12.1062 17.0768 12.0511 17.2449 12.0071 17.3881C11.9575 17.5479 11.9079 17.7077 11.8583 17.8675C11.8087 18.0218 11.7591 18.1789 11.7095 18.3387C11.6654 18.4929 11.6158 18.6472 11.5607 18.8015C11.5387 18.8566 11.5194 18.9062 11.5029 18.9503C11.4918 18.9944 11.4781 19.0385 11.4615 19.0825C11.4505 19.1266 11.434 19.179 11.4119 19.2396C11.3954 19.2947 11.3706 19.3636 11.3376 19.4462C11.2769 19.606 11.2108 19.741 11.1392 19.8512C11.0731 19.9559 11.0042 20.0331 10.9326 20.0827C10.8609 20.1378 10.7893 20.1626 10.7177 20.157C10.646 20.1515 10.5744 20.1185 10.5028 20.0579C10.4366 20.0028 10.3733 19.9201 10.3126 19.8099C10.252 19.6942 10.1969 19.5537 10.1473 19.3884C10.1198 19.2892 10.095 19.2093 10.0729 19.1487C10.0564 19.0881 10.0399 19.0329 10.0234 18.9834C10.0123 18.9338 9.99581 18.8731 9.97376 18.8015C9.93519 18.6748 9.88836 18.504 9.83325 18.2891C9.77815 18.0742 9.71478 17.8372 9.64315 17.5782C9.57151 17.3193 9.49162 17.0603 9.40345 16.8013C9.3759 16.7186 9.33457 16.6856 9.27947 16.7021C9.22988 16.7186 9.17753 16.7517 9.12243 16.8013C9.07284 16.8509 9.03426 16.8839 9.00671 16.9005C8.97916 16.917 8.97641 16.8812 8.99845 16.793C9.04253 16.6222 9.09763 16.4707 9.16376 16.3384C9.22988 16.2062 9.30151 16.1042 9.37866 16.0326C9.46131 15.9555 9.54396 15.9196 9.62662 15.9252C9.70927 15.9252 9.78917 15.972 9.86631 16.0657C9.94346 16.1593 10.0123 16.3081 10.0729 16.512C10.1115 16.6277 10.1198 16.7076 10.0977 16.7517C10.0812 16.7903 10.0482 16.8151 9.99856 16.8261C9.94897 16.8316 9.89938 16.8481 9.84978 16.8757C9.80019 16.8977 9.76162 16.9528 9.73407 17.041C9.66794 17.2779 9.60182 17.5038 9.5357 17.7187C9.46957 17.9336 9.40896 18.132 9.35386 18.3139C9.29876 18.4902 9.24916 18.65 9.20508 18.7933C9.18855 18.8539 9.17202 18.909 9.15549 18.9586C9.13896 19.0026 9.11967 19.0577 9.09763 19.1239C9.07559 19.1845 9.04528 19.2699 9.00671 19.3801C8.94059 19.5895 8.86896 19.7575 8.79181 19.8843C8.71467 20.0055 8.63477 20.0854 8.55212 20.124C8.47497 20.1681 8.39507 20.1681 8.31242 20.124C8.23527 20.0854 8.15813 20.0055 8.08099 19.8843C8.00384 19.7631 7.92945 19.606 7.85782 19.4132C7.81925 19.2974 7.78619 19.2065 7.75864 19.1404C7.7366 19.0743 7.71731 19.0164 7.70078 18.9668C7.68425 18.9117 7.66221 18.8484 7.63466 18.7767C7.552 18.5453 7.4721 18.3083 7.39496 18.0659C7.32332 17.8179 7.25169 17.592 7.18006 17.3881C7.12496 17.2118 7.0671 17.0355 7.00648 16.8591C6.94587 16.6828 6.88526 16.5092 6.82465 16.3384C6.77505 16.2062 6.7723 16.096 6.81638 16.0078C6.86597 15.9141 6.93485 15.8508 7.02302 15.8177C7.11669 15.7846 7.21036 15.7902 7.30404 15.8342C7.39771 15.8728 7.46935 15.9582 7.51894 16.0905ZM22.4544 16.76C22.3552 16.7159 22.256 16.6773 22.1568 16.6442C22.0577 16.6112 21.9585 16.5864 21.8593 16.5699C21.7656 16.5533 21.6719 16.5451 21.5783 16.5451C21.4515 16.5451 21.3331 16.5616 21.2229 16.5947C21.1126 16.6277 21.0217 16.6801 20.9501 16.7517C20.884 16.8178 20.8509 16.906 20.8509 17.0162C20.8509 17.0878 20.8812 17.1539 20.9418 17.2146C21.0024 17.2697 21.0796 17.3193 21.1733 17.3633C21.2669 17.4074 21.3634 17.4487 21.4625 17.4873C21.5617 17.5204 21.6499 17.5479 21.727 17.57C21.9915 17.6581 22.2312 17.7573 22.4461 17.8675C22.6665 17.9722 22.8401 18.1072 22.9669 18.2725C23.0991 18.4378 23.1652 18.65 23.1652 18.909C23.1652 19.1459 23.1019 19.3553 22.9751 19.5371C22.8484 19.7135 22.6748 19.8512 22.4544 19.9504C22.2395 20.0441 21.9888 20.0909 21.7022 20.0909C21.4818 20.0909 21.2504 20.0579 21.008 19.9917C20.7655 19.9256 20.5258 19.8292 20.2889 19.7024C20.1621 19.6363 20.085 19.5537 20.0574 19.4545C20.0354 19.3553 20.0464 19.2616 20.0905 19.1735C20.1401 19.0853 20.2117 19.0247 20.3054 18.9916C20.4046 18.9586 20.5148 18.9751 20.636 19.0412C20.7572 19.1073 20.8785 19.1624 20.9997 19.2065C21.1209 19.2506 21.2394 19.2864 21.3551 19.314C21.4763 19.336 21.592 19.347 21.7022 19.347C21.829 19.347 21.9447 19.3333 22.0494 19.3057C22.1596 19.2726 22.2478 19.2258 22.3139 19.1652C22.3855 19.0991 22.4213 19.0137 22.4213 18.909C22.4213 18.7933 22.369 18.6968 22.2643 18.6197C22.1596 18.537 22.0329 18.4709 21.8841 18.4213C21.7408 18.3662 21.6113 18.3194 21.4956 18.2808C21.2366 18.1926 21.0024 18.099 20.7931 17.9998C20.5837 17.8951 20.4156 17.7683 20.2889 17.6196C20.1676 17.4653 20.107 17.2642 20.107 17.0162C20.107 16.7737 20.1704 16.5616 20.2971 16.3798C20.4239 16.1979 20.5974 16.0574 20.8178 15.9582C21.0383 15.8535 21.2917 15.8012 21.5783 15.8012C21.7656 15.8012 21.9612 15.826 22.1651 15.8756C22.369 15.9196 22.5756 15.994 22.785 16.0987C22.9062 16.1593 22.9806 16.2392 23.0082 16.3384C23.0412 16.4321 23.0357 16.523 22.9916 16.6112C22.9531 16.6993 22.8842 16.7627 22.785 16.8013C22.6913 16.8399 22.5811 16.8261 22.4544 16.76ZM24.082 19.6694C24.082 19.5537 24.082 19.4297 24.082 19.2974C24.082 19.1652 24.082 19.0329 24.082 18.9007C24.082 18.7685 24.082 18.6445 24.082 18.5288C24.082 18.0879 24.082 17.6058 24.082 17.0823C24.082 16.5588 24.082 15.9692 24.082 15.3135C24.082 15.1647 24.082 14.9912 24.082 14.7928C24.082 14.5944 24.082 14.4153 24.082 14.2555C24.082 14.1178 24.1178 14.0131 24.1894 13.9415C24.2666 13.8698 24.3547 13.834 24.4539 13.834C24.5531 13.834 24.6385 13.8698 24.7101 13.9415C24.7873 14.0131 24.8259 14.1178 24.8259 14.2555C24.8259 14.3878 24.8259 14.5118 24.8259 14.6275C24.8259 14.7377 24.8259 14.8507 24.8259 14.9664C24.8259 15.0766 24.8259 15.1923 24.8259 15.3135C24.8259 15.6056 24.8259 15.9169 24.8259 16.2475C24.8259 16.5781 24.8259 16.9335 24.8259 17.3137C24.8259 17.6884 24.8259 18.0934 24.8259 18.5288C24.8259 18.6665 24.8259 18.796 24.8259 18.9172C24.8259 19.0385 24.8259 19.1597 24.8259 19.2809C24.8259 19.4021 24.8259 19.5316 24.8259 19.6694C24.8259 19.8071 24.7873 19.9118 24.7101 19.9835C24.6385 20.0551 24.5531 20.0909 24.4539 20.0909C24.3547 20.0909 24.2666 20.0551 24.1894 19.9835C24.1178 19.9118 24.082 19.8071 24.082 19.6694Z" fill="white"/>
<path d="M13.1708 20.1233C12.8847 19.8373 12.8847 19.3736 13.1708 19.0876C13.4568 18.8016 13.9205 18.8016 14.2065 19.0876C14.4925 19.3736 14.4925 19.8373 14.2065 20.1233C13.9205 20.4093 13.4568 20.4093 13.1708 20.1233Z" fill="#34394A"/>
<path d="M13.3049 19.9891C13.093 19.7772 13.093 19.4337 13.3049 19.2218C13.5168 19.0099 13.8603 19.0099 14.0722 19.2218C14.284 19.4337 14.284 19.7772 14.0722 19.9891C13.8603 20.201 13.5168 20.201 13.3049 19.9891Z" fill="#A0E5CA"/>
<path d="M13.6884 19.9142C13.5185 19.9142 13.3807 19.7764 13.3807 19.6065C13.3807 19.4366 13.5185 19.2988 13.6884 19.2988C13.8583 19.2988 13.9961 19.4366 13.9961 19.6065C13.9961 19.7764 13.8583 19.9142 13.6884 19.9142Z" fill="white"/>
<path d="M12.8862 19.3386C13.0554 18.723 13.7544 18.7818 13.7544 18.7818L14.2085 18.7814L14.5561 19.3386L14.6748 19.7142H14.2085L14.0025 19.3386H12.8862Z" fill="#5B61C7"/>
<path d="M18.0329 16.9043H19.3044V18.1901H18.0329V16.9043Z" fill="#F4DA8B"/>
<path d="M17.9331 16.9043H19.4038V17.199H17.9331V16.9043Z" fill="#F4DA8B"/>
<path d="M18.0329 17.1992H19.3044V17.2796H18.0329V17.1992Z" fill="#E6C46C"/>
<path d="M19.0894 16.9043H19.1748V18.1901H19.0894V16.9043Z" fill="#7B4CDF"/>
<path d="M18.1634 16.9043H18.2488V18.1901H18.1634V16.9043Z" fill="#7B4CDF"/>
<path d="M17.671 18.1895H19.4602" stroke="#7B4CDF" stroke-width="0.0568511" stroke-miterlimit="10"/>
<path d="M18.7217 18.1895L18.01 18.9348" stroke="#7B4CDF" stroke-width="0.0568511" stroke-miterlimit="10"/>
<path d="M14.6373 16.9659L14.6998 16.5272C14.7034 16.5018 14.7238 16.4825 14.7493 16.4802L14.8716 16.4693L14.8686 16.4355L14.7463 16.4465C14.705 16.4502 14.6721 16.4814 14.6663 16.5224L14.6037 16.9611L14.6373 16.9659Z" fill="#34394A"/>
<path d="M14.9285 16.2224V16.625C14.9285 16.625 14.8431 16.6118 14.8431 16.4013C14.8431 16.1908 14.9285 16.2224 14.9285 16.2224Z" fill="#5B61C7"/>
<path d="M17.8538 18.3235C17.8538 18.3235 17.8581 18.3193 17.865 18.3113C18.0652 18.0783 17.8936 17.8184 17.5864 17.8184H16.2363C15.9782 17.8184 15.795 17.9825 15.9012 18.2178C15.9168 18.2523 15.9377 18.2876 15.9649 18.3235H17.8538V18.3235Z" fill="#E97083"/>
<path d="M16.3223 19.4215H15.0564L14.5443 18.6582L14.3842 18.9611L14.8856 19.7509L15.9178 19.8525L16.3223 19.4215Z" fill="#5B61C7"/>
<path d="M13.7543 18.7822C13.7543 18.7822 13.813 18.4626 14.1181 18.0906C14.3227 17.8411 14.491 17.5955 14.6234 17.4604H14.4874V16.9043H14.7063C14.7629 16.9043 14.8151 16.9354 14.8415 16.9855C14.9096 17.1146 14.9305 17.2634 14.9006 17.4062L14.5375 18.8386C14.5253 18.897 14.5347 18.9578 14.5638 19.0098L14.8435 19.5089C14.892 19.5953 14.9833 19.6488 15.0824 19.6488H15.8051C15.9428 19.6488 16.1248 19.5465 16.1424 19.41L16.1845 19.083C16.2097 18.887 16.0889 18.689 15.9661 18.5341L15.9649 18.5326V18.3231H17.8538L18.3044 18.8352L16.8137 19.4083L16.4755 19.7824C16.365 19.9201 16.2015 20.0079 16.0251 20.015C16.017 20.0153 16.009 20.0155 16.001 20.0155H14.9405C14.8399 20.0155 14.7476 19.96 14.7004 19.8713L14.2789 19.128C14.2333 19.0423 14.1592 18.9752 14.0695 18.9384L13.7543 18.7822Z" fill="#9B77E7"/>
<path d="M14.4873 17.4596V16.9043C14.4086 16.9043 14.3448 16.9681 14.3448 17.0468V17.317C14.3448 17.3958 14.4086 17.4596 14.4873 17.4596Z" fill="#F4DA8B"/>
<path d="M14.7855 17.0764L14.9002 16.6756C14.9146 16.624 14.962 16.588 15.0156 16.588H15.1206V16.5566H15.0156C14.948 16.5566 14.8881 16.6021 14.87 16.6672L14.7553 17.0679L14.7855 17.0764Z" fill="#34394A"/>
<path d="M15.0791 16.5553C15.0791 16.6916 15.1161 16.802 15.1619 16.802C15.2076 16.802 15.2446 16.6916 15.2446 16.5553C15.2446 16.4191 15.2076 16.3086 15.1619 16.3086C15.1161 16.3086 15.0791 16.419 15.0791 16.5553Z" fill="#7B4CDF"/>
<path d="M12.6407 20.3398H19.4937" stroke="#34394A" stroke-width="0.0151811" stroke-miterlimit="10"/>
<path d="M16.9726 19.7707C16.8814 19.3767 17.127 18.9833 17.5211 18.8922C17.9152 18.801 18.3086 19.0466 18.3997 19.4407C18.4908 19.8348 18.2452 20.2282 17.8511 20.3193C17.457 20.4104 17.0637 20.1648 16.9726 19.7707Z" fill="#34394A"/>
<path d="M17.1576 19.729C17.0897 19.4372 17.2713 19.1456 17.5632 19.0777C17.855 19.0098 18.1466 19.1914 18.2145 19.4833C18.2824 19.7751 18.1008 20.0667 17.8089 20.1346C17.5171 20.2025 17.2255 20.0209 17.1576 19.729Z" fill="#A0E5CA"/>
<path d="M17.686 19.9142C17.5161 19.9142 17.3783 19.7764 17.3783 19.6065C17.3783 19.4366 17.5161 19.2988 17.686 19.2988C17.8559 19.2988 17.9937 19.4366 17.9937 19.6065C17.9937 19.7764 17.8559 19.9142 17.686 19.9142Z" fill="white"/>
<path d="M18.6787 19.5056C18.7321 19.5056 18.7699 19.4523 18.7547 19.3992C18.6899 19.1733 18.4186 18.6266 17.922 18.4839C17.176 18.2695 16.7858 18.6176 16.7093 18.774C16.6389 18.9177 16.5105 19.2549 16.7351 19.5056H18.6787V19.5056Z" fill="#5B61C7"/>
<mask id="mask0_2899_8849" style="mask-type:luminance" maskUnits="userSpaceOnUse" x="16" y="18" width="3" height="2">
<path d="M18.6787 19.5056C18.7321 19.5056 18.7699 19.4523 18.7547 19.3992C18.6899 19.1733 18.4186 18.6266 17.922 18.4839C17.176 18.2695 16.7858 18.6176 16.7093 18.774C16.6389 18.9177 16.5105 19.2549 16.7351 19.5056H18.6787V19.5056Z" fill="white"/>
</mask>
<g mask="url(#mask0_2899_8849)">
<path d="M16.3603 19.3633H18.8674V19.5722H16.3603V19.3633Z" fill="#9092F2"/>
</g>
<path d="M18.3987 19.209H17.9948" stroke="#34394A" stroke-width="0.0319529" stroke-miterlimit="10" stroke-linecap="round" stroke-linejoin="round"/>
<path d="M18.3149 19.123H17.9948" stroke="#34394A" stroke-width="0.0319529" stroke-miterlimit="10" stroke-linecap="round" stroke-linejoin="round"/>
<path d="M18.1968 19.0352H17.9948" stroke="#34394A" stroke-width="0.0319529" stroke-miterlimit="10" stroke-linecap="round" stroke-linejoin="round"/>
<path d="M15.6896 15.4775C15.6896 15.4775 15.5218 15.5829 15.5672 15.7456C15.6127 15.9083 15.7292 16.208 15.8436 16.159C15.9581 16.1099 16.0316 16.0445 16.0316 16.0445L16.1011 15.7955L15.6896 15.4775Z" fill="#EACBB5"/>
<path d="M15.9264 16.0763L16.1506 16.3255L16.3118 16.0094L16.0335 15.793L15.9264 16.0763Z" fill="#EACBB5"/>
<path d="M15.9505 16.1032C15.9505 16.1032 16.024 16.0375 16.0444 16.0098L16.0285 16.1891L15.9505 16.1032Z" fill="#E0AD95"/>
<path d="M15.9931 15.7598L15.9282 15.8036L15.9237 15.747C15.9237 15.747 15.6506 15.7375 15.6888 15.5221C15.6803 15.57 15.9152 15.3667 16.0377 15.4119C16.1193 15.442 16.2289 15.5443 16.2407 15.6304C16.2498 15.6975 16.2084 15.7773 16.1699 15.899L15.9931 15.7598Z" fill="#34394A"/>
<path d="M15.645 15.875L15.6164 16.0053C15.6139 16.0166 15.625 16.0261 15.6358 16.022L15.7043 15.9956L15.645 15.875Z" fill="#EACBB5"/>
<path d="M15.7024 15.8699C15.7084 15.8806 15.7049 15.8941 15.6945 15.8999C15.6842 15.9057 15.6709 15.9018 15.6648 15.8911C15.6588 15.8804 15.6623 15.867 15.6727 15.8611C15.6831 15.8553 15.6964 15.8592 15.7024 15.8699Z" fill="#34394A"/>
<path d="M15.6706 15.7278C15.6706 15.7278 15.736 15.7178 15.7393 15.7544C15.7393 15.7544 15.741 15.7793 15.6839 15.7866C15.6268 15.7938 15.6039 15.7907 15.597 15.7675C15.5901 15.7444 15.6397 15.7293 15.6706 15.7278Z" fill="#34394A"/>
<path d="M15.9145 15.873L15.5836 15.988L15.6809 16.107C15.7369 16.1756 15.8366 16.1881 15.9083 16.136C15.9216 16.1263 15.9356 16.1153 15.9502 16.103L15.9145 15.873Z" fill="white"/>
<path d="M15.9687 15.7422L15.8916 15.9158L16.1111 15.8214" stroke="white" stroke-width="0.0157113" stroke-miterlimit="10"/>
<path d="M16.2641 15.7794C16.2641 15.7794 16.0887 15.9203 15.9548 15.8427L15.8299 15.6803L15.4532 15.7771C15.4532 15.7771 15.4628 15.761 15.4857 15.6551C15.5086 15.5493 15.5538 15.3412 15.912 15.3156C16.267 15.2902 16.2873 15.7027 16.2641 15.7794Z" fill="#7B4CDF"/>
<path d="M15.8301 15.6807L15.4723 15.7144L15.3123 15.8008C15.2934 15.811 15.305 15.8382 15.3255 15.832L15.8301 15.6807Z" fill="#5B61C7"/>
<path d="M17.2186 17.3659L17.2188 17.3655L17.2164 17.3595L17.206 17.3332C17.1969 17.3105 17.1838 17.2778 17.1676 17.238C17.1352 17.1582 17.0905 17.0499 17.0413 16.9353C16.9922 16.8208 16.9385 16.7 16.8881 16.5956C16.8377 16.4909 16.7909 16.4031 16.7553 16.354C16.6406 16.1957 16.5291 16.1116 16.4465 16.0672C16.4052 16.0449 16.3711 16.0325 16.3475 16.0257C16.3356 16.0223 16.3264 16.0203 16.3202 16.0192L16.3153 16.0184L16.3109 16.024C16.3063 16.0301 16.2997 16.0387 16.2918 16.0494C16.276 16.0708 16.2552 16.1001 16.2346 16.132C16.2139 16.1639 16.1938 16.1982 16.1793 16.2296C16.1647 16.2613 16.1567 16.2885 16.1587 16.3068L16.1509 16.3076L16.1587 16.3068C16.2042 16.7181 16.3164 17.0951 16.4173 17.3693C16.4678 17.5064 16.5154 17.6177 16.5503 17.6947C16.5678 17.7333 16.5821 17.7632 16.5921 17.7835L16.6036 17.8066L16.6047 17.8087C16.8396 17.7455 16.9933 17.6343 17.0883 17.5388C17.1363 17.4906 17.1693 17.4464 17.1904 17.4143C17.2009 17.3982 17.2084 17.3852 17.2132 17.3762L17.2186 17.3659Z" fill="#E97083" stroke="#E97083" stroke-width="0.0160189"/>
<path d="M16.0872 16.8359L16.0007 17.1093C15.971 17.2207 15.9454 17.2938 16.0534 17.334C16.1735 17.3788 16.3066 17.3137 16.3451 17.1915L16.4263 16.9428L16.0872 16.8359Z" fill="#EACBB5"/>
<path d="M16.0287 16.8086L16.5053 16.9588L16.6169 16.5582C16.6514 16.4346 16.5881 16.3046 16.4696 16.2554C16.3989 16.226 16.3209 16.2445 16.2595 16.2714C16.229 16.2848 16.2029 16.3001 16.1845 16.312C16.1753 16.318 16.168 16.3231 16.1631 16.3267L16.1576 16.3308L16.0287 16.8086Z" fill="#E97083" stroke="#E97083" stroke-width="0.0160189"/>
<path d="M16.4261 16.9425L16.5107 16.9691L16.6245 16.5605" stroke="#E97083" stroke-width="0.0151811" stroke-miterlimit="10" stroke-linecap="round" stroke-linejoin="round"/>
<path d="M16.0725 17.0081L15.0745 17.1087L15.1149 17.2647L16.1247 17.3493C16.2832 17.3269 16.3697 17.2025 16.3176 17.0511C16.2775 16.9343 16.1945 16.9889 16.0725 17.0081Z" fill="#EACBB5"/>
<path d="M15.1566 17.1072L14.8449 16.9622C14.8144 16.948 14.7781 16.9554 14.7556 16.9805L14.6634 17.0971C14.6412 17.1219 14.6353 17.1574 14.6484 17.1881L14.6628 17.2219C14.6693 17.2372 14.6802 17.2503 14.694 17.2596L14.7369 17.2883C14.7602 17.3038 14.7912 17.3011 14.8114 17.2817L14.8425 17.2518L14.9773 17.2993C14.9773 17.2993 15.0781 17.3485 15.1948 17.2653L15.1566 17.1072Z" fill="white"/>
<path d="M14.9029 17.1349L14.9842 17.1843C15.0327 17.2264 15.0341 17.3012 14.9873 17.345C14.9433 17.3863 14.8742 17.3837 14.8334 17.3393L14.7579 17.2839C14.7188 17.2413 14.7219 17.175 14.7648 17.1362C14.8039 17.1009 14.8632 17.1004 14.9029 17.1349Z" fill="#34394A"/>
<path d="M15.129 17.1035L15.2778 17.0889L15.2355 17.2754L15.1424 17.2665L15.129 17.1035Z" fill="white"/>
<path d="M17.2178 17.3857C17.2178 17.3857 17.6064 18.0215 16.7692 18.1024L15.4021 18.1041C15.267 18.1036 15.1804 17.9284 15.1957 17.7942C15.208 17.6856 15.296 17.6012 15.405 17.5935L17.2178 17.3857Z" fill="#34394A"/>
<path d="M15.7542 18.8045L15.8018 19.2241L15.4783 19.2087L15.4178 18.7402L15.7542 18.8045Z" fill="#EACBB5"/>
<path d="M15.4699 19.1451L15.0248 19.3755C14.9918 19.3921 14.9744 19.4292 14.9828 19.4652L15.8687 19.4524L15.7989 19.1416L15.4699 19.1451Z" fill="white"/>
<path d="M15.8686 19.4521L15.8706 19.5146L15.0551 19.5186C15.0218 19.5186 14.9924 19.4969 14.9828 19.465L15.8686 19.4521Z" fill="black"/>
<path d="M15.7451 19.2909C15.7444 19.3343 15.7086 19.369 15.6652 19.3683C15.6217 19.3676 15.5871 19.3318 15.5878 19.2883C15.5885 19.2449 15.6243 19.2102 15.6677 19.2109C15.7112 19.2117 15.7458 19.2475 15.7451 19.2909Z" stroke="black" stroke-width="0.0129433" stroke-miterlimit="10"/>
<path d="M15.3368 19.2061L15.4065 19.2678" stroke="black" stroke-width="0.0258849" stroke-miterlimit="10" stroke-linecap="round" stroke-linejoin="round"/>
<path d="M15.2717 19.2383L15.3418 19.3004" stroke="black" stroke-width="0.0258849" stroke-miterlimit="10" stroke-linecap="round" stroke-linejoin="round"/>
<path d="M15.2026 19.2734L15.2759 19.3383" stroke="black" stroke-width="0.0258849" stroke-miterlimit="10" stroke-linecap="round" stroke-linejoin="round"/>
<path d="M15.7067 17.6963L15.8403 18.9627L15.3647 18.963L15.1938 17.8255L15.7067 17.6963Z" fill="#34394A"/>
<path fill-rule="evenodd" clip-rule="evenodd" d="M28.1817 16.7886C28.227 16.7085 28.2701 16.6304 28.311 16.5543C28.3662 16.4574 28.3834 16.3692 28.3625 16.2897C28.3454 16.2107 28.3063 16.1514 28.2453 16.1119C28.1881 16.073 28.1233 16.0624 28.051 16.0802C27.9826 16.0985 27.9226 16.1564 27.8713 16.2537C27.8374 16.3178 27.8014 16.3856 27.7633 16.4569C27.9543 16.5393 28.0887 16.7234 28.1036 16.9359C28.1304 16.8869 28.1564 16.8378 28.1817 16.7886ZM27.8187 17.4671C27.724 17.521 27.6128 17.5481 27.4963 17.539C27.3976 17.5313 27.3067 17.4986 27.2295 17.4475C27.1942 17.5131 27.1578 17.5802 27.1204 17.6489C27.0237 17.8264 26.9273 18.0016 26.8312 18.1745C26.7389 18.348 26.6522 18.5086 26.571 18.6564C26.4904 18.7997 26.4244 18.9201 26.373 19.0174C26.352 19.0599 26.3315 19.098 26.3116 19.1316C26.2956 19.1657 26.2776 19.1996 26.2578 19.2332C26.2417 19.2673 26.2232 19.3056 26.2022 19.3481C26.1768 19.3945 26.1492 19.443 26.1193 19.4934C26.0934 19.5443 26.0655 19.5949 26.0357 19.6453L25.9462 19.7966C25.9203 19.8475 25.8946 19.8962 25.8692 19.9426C25.8283 20.0187 25.8093 20.0909 25.8122 20.1591C25.8151 20.2272 25.8331 20.2838 25.8662 20.3287C25.9026 20.3786 25.9451 20.4112 25.9937 20.4264C26.0461 20.4422 26.0995 20.4355 26.1538 20.4063C26.2113 20.3821 26.2625 20.3321 26.3072 20.2565C26.3326 20.2101 26.3583 20.1614 26.3843 20.1105C26.4135 20.0645 26.4411 20.0161 26.4671 19.9652C26.4925 19.9187 26.5182 19.87 26.5442 19.8191C26.5696 19.7727 26.5953 19.724 26.6213 19.6731C26.6423 19.6306 26.663 19.5903 26.6834 19.5523C26.7077 19.5147 26.7304 19.4747 26.7514 19.4322L26.8127 19.318C26.8889 19.1786 26.9856 19.0012 27.1027 18.7857C27.2198 18.5702 27.3422 18.3441 27.4698 18.1074C27.5973 17.8784 27.7136 17.665 27.8187 17.4671Z" fill="#EBEBEB"/>
<path fill-rule="evenodd" clip-rule="evenodd" d="M26.658 18.9958C26.6964 19.0594 26.7656 19.098 26.8398 19.0972C26.9141 19.0965 26.9825 19.0565 27.0196 18.9922L27.2457 18.6006C27.7072 17.8023 28.1431 17.0478 28.2954 16.736L28.2996 16.7279C28.4072 16.5008 28.4605 16.2576 28.458 16.0048C28.4487 15.0953 27.7013 14.3629 26.7919 14.3722C25.8824 14.3814 25.15 15.1288 25.1593 16.0383C25.1618 16.2912 25.2201 16.5334 25.3333 16.7597C25.4889 17.0642 25.943 17.8145 26.4238 18.6088L26.658 18.9958ZM25.9367 16.0113C25.9367 16.4562 26.2987 16.8181 26.7436 16.8181C27.1885 16.8181 27.5505 16.4562 27.5505 16.0113C27.5505 15.5663 27.1885 15.2043 26.7436 15.2043C26.2987 15.2043 25.9367 15.5663 25.9367 16.0113Z" fill="white"/>
</svg>
