<svg width="24" height="24" viewBox="0 0 24 24" fill="none" xmlns="http://www.w3.org/2000/svg">
<path fill-rule="evenodd" clip-rule="evenodd" d="M16.4109 2.76862L16.4119 3.51824C19.1665 3.73413 20.9862 5.6112 20.9891 8.48975L21 16.9155C21.0039 20.054 19.0322 21.985 15.8718 21.99L8.15189 22C5.01119 22.004 3.01482 20.027 3.01087 16.8796L3.00001 8.55272C2.99606 5.65517 4.75153 3.78311 7.50617 3.53024L7.50519 2.78061C7.5042 2.34083 7.83002 2.01 8.26444 2.01C8.69887 2.009 9.02468 2.33883 9.02567 2.77861L9.02666 3.47826L14.8914 3.47027L14.8904 2.77062C14.8894 2.33084 15.2152 2.001 15.6497 2C16.0742 1.999 16.4099 2.32884 16.4109 2.76862ZM4.52247 8.86184L19.4706 8.84185V8.49202C19.4282 6.3431 18.35 5.21566 16.4148 5.04774L16.4158 5.81736C16.4158 6.24714 16.0811 6.58797 15.6566 6.58797C15.2222 6.58897 14.8953 6.24914 14.8953 5.81936L14.8944 5.00976L9.02963 5.01776L9.03061 5.82635C9.03061 6.25714 8.70578 6.59697 8.27136 6.59697C7.83693 6.59797 7.51013 6.25914 7.51013 5.82835L7.50914 5.05874C5.58385 5.25164 4.51852 6.38308 4.52148 8.55099L4.52247 8.86184ZM15.2412 13.406V13.417C15.2511 13.8768 15.6263 14.2256 16.0814 14.2156C16.5257 14.2046 16.8802 13.8238 16.8703 13.364C16.8496 12.9242 16.4931 12.5654 16.0498 12.5664C15.5957 12.5764 15.2402 12.9462 15.2412 13.406ZM16.056 17.8916C15.6019 17.8816 15.2356 17.5027 15.2346 17.043C15.2247 16.5832 15.589 16.2024 16.0432 16.1914H16.0531C16.5171 16.1914 16.8933 16.5702 16.8933 17.04C16.8943 17.5097 16.5191 17.8906 16.056 17.8916ZM11.1738 13.4192C11.1936 13.8789 11.5697 14.2378 12.0239 14.2178C12.4682 14.1968 12.8227 13.817 12.8029 13.3572C12.7921 12.9074 12.4267 12.5576 11.9824 12.5586C11.5283 12.5786 11.1728 12.9594 11.1738 13.4192ZM12.0278 17.8467C11.5736 17.8667 11.1985 17.5078 11.1777 17.0481C11.1777 16.5883 11.5322 16.2085 11.9864 16.1875C12.4306 16.1865 12.7969 16.5363 12.8068 16.9851C12.8276 17.4459 12.4721 17.8257 12.0278 17.8467ZM7.10644 13.4563C7.12619 13.916 7.50236 14.2759 7.95653 14.2549C8.40083 14.2349 8.75528 13.8541 8.73455 13.3943C8.72467 12.9445 8.35936 12.5947 7.91408 12.5957C7.4599 12.6157 7.10545 12.9965 7.10644 13.4563ZM7.95946 17.8525C7.50529 17.8735 7.1301 17.5137 7.10937 17.0539C7.10838 16.5942 7.46382 16.2133 7.91799 16.1934C8.36229 16.1924 8.72859 16.5422 8.73846 16.992C8.7592 17.4517 8.40475 17.8325 7.95946 17.8525Z" fill="#8C8994"/>
</svg>
