<svg width="24" height="24" viewBox="0 0 24 24" fill="none" xmlns="http://www.w3.org/2000/svg">
<path fill-rule="evenodd" clip-rule="evenodd" d="M20.4034 9.14703L21.1239 9.8672C21.6942 10.4273 22.0044 11.1875 22.0044 11.9877C22.0144 12.7879 21.7042 13.549 21.1439 14.1182C21.1372 14.1255 21.1305 14.132 21.1239 14.1384C21.1205 14.1416 21.1172 14.1449 21.1139 14.1482L20.4034 14.8583C20.1233 15.1384 19.9632 15.5185 19.9632 15.9196V16.9488C19.9632 18.6092 18.6124 19.9605 16.9514 19.9605H15.9208C15.5205 19.9605 15.1403 20.1196 14.8601 20.3996L14.1397 21.1198C13.5494 21.7109 12.7789 22 12.0085 22C11.238 22 10.4675 21.7109 9.87719 21.1308L9.14676 20.3996C8.86659 20.1196 8.48637 19.9605 8.08613 19.9605H7.05552C5.39453 19.9605 4.04373 18.6092 4.04373 16.9488V15.9196C4.04373 15.5185 3.88363 15.1384 3.60347 14.8483L2.88304 14.1382C1.71235 12.9689 1.70234 11.0575 2.87303 9.8782L3.60347 9.14703C3.88363 8.86696 4.04373 8.48688 4.04373 8.07678V7.05655C4.04373 5.39616 5.39453 4.04685 7.05552 4.04685H8.08613C8.48637 4.04685 8.86659 3.88581 9.14676 3.60575L9.86719 2.88558C11.0379 1.70631 12.949 1.70631 14.1297 2.87658L14.8601 3.60575C15.1403 3.88581 15.5205 4.04685 15.9208 4.04685H16.9514C18.6124 4.04685 19.9632 5.39616 19.9632 7.05655V8.08778C19.9632 8.48688 20.1233 8.86696 20.4034 9.14703ZM9.42704 15.4486C9.66718 15.4486 9.88731 15.3586 10.0474 15.1885L15.1905 10.0483C15.5307 9.70825 15.5307 9.14712 15.1905 8.80704C14.8503 8.46796 14.2999 8.46796 13.9597 8.80704L8.81667 13.9482C8.47647 14.2883 8.47647 14.8484 8.81667 15.1885C8.97677 15.3586 9.1969 15.4486 9.42704 15.4486ZM13.6992 14.5692C13.6992 15.0592 14.0894 15.4492 14.5795 15.4492C15.0597 15.4492 15.4499 15.0592 15.4499 14.5692C15.4499 14.0902 15.0597 13.6992 14.5795 13.6992C14.0894 13.6992 13.6992 14.0902 13.6992 14.5692ZM9.43696 8.55664C9.91713 8.55664 10.3073 8.94664 10.3073 9.42664C10.3073 9.91764 9.91713 10.3066 9.43696 10.3066C8.95679 10.3066 8.55664 9.91764 8.55664 9.42664C8.55664 8.94664 8.95679 8.55664 9.43696 8.55664Z" fill="#8C8994"/>
</svg>
