<svg width="24" height="24" viewBox="0 0 24 24" fill="none" xmlns="http://www.w3.org/2000/svg">
<path fill-rule="evenodd" clip-rule="evenodd" d="M16.939 3C18.28 3 19.57 3.53 20.519 4.481C21.469 5.43 22 6.71 22 8.05V15.95C22 18.74 19.73 21 16.939 21H7.06C4.269 21 2 18.74 2 15.95V8.05C2 5.26 4.259 3 7.06 3H16.939ZM18.529 9.54033L18.609 9.46033C18.848 9.17033 18.848 8.75033 18.598 8.46033C18.459 8.31133 18.268 8.22033 18.069 8.20033C17.859 8.18933 17.659 8.26033 17.508 8.40033L12.999 12.0003C12.419 12.4813 11.588 12.4813 10.999 12.0003L6.49895 8.40033C6.18795 8.17033 5.75795 8.20033 5.49895 8.47033C5.22895 8.74033 5.19895 9.17033 5.42795 9.47033L5.55895 9.60033L10.109 13.1503C10.669 13.5903 11.348 13.8303 12.059 13.8303C12.768 13.8303 13.459 13.5903 14.018 13.1503L18.529 9.54033Z" fill="#8C8994"/>
</svg>
