<svg width="24" height="24" viewBox="0 0 24 24" fill="none" xmlns="http://www.w3.org/2000/svg">
<path fill-rule="evenodd" clip-rule="evenodd" d="M19.9601 13.001C20.299 13.1815 20.5604 13.4665 20.7443 13.7515C21.1026 14.3405 21.0735 15.0625 20.725 15.699L20.0473 16.839C19.689 17.447 19.021 17.827 18.3336 17.827C17.9947 17.827 17.6171 17.732 17.3073 17.542C17.0556 17.3805 16.7652 17.3235 16.4553 17.3235C15.4969 17.3235 14.6933 18.112 14.6642 19.0525C14.6642 20.145 13.7735 21 12.6601 21H11.3434C10.2203 21 9.32961 20.145 9.32961 19.0525C9.31025 18.112 8.50666 17.3235 7.54818 17.3235C7.22868 17.3235 6.93823 17.3805 6.69619 17.542C6.38637 17.732 5.9991 17.827 5.66993 17.827C4.97284 17.827 4.30481 17.447 3.94658 16.839L3.27855 15.699C2.92032 15.0815 2.90096 14.3405 3.25918 13.7515C3.41409 13.4665 3.70454 13.1815 4.03372 13.001C4.30481 12.868 4.47908 12.6495 4.64367 12.393C5.12775 11.576 4.8373 10.5025 4.01435 10.018C3.05587 9.4765 2.74605 8.27 3.29791 7.3295L3.94658 6.2085C4.50812 5.268 5.70865 4.9355 6.67682 5.4865C7.51913 5.9425 8.61316 5.6385 9.10693 4.831C9.26184 4.565 9.34897 4.28 9.32961 3.995C9.31025 3.6245 9.41674 3.273 9.6007 2.988C9.95892 2.399 10.6076 2.019 11.3144 2H12.6795C13.3959 2 14.0446 2.399 14.4028 2.988C14.5771 3.273 14.6933 3.6245 14.6642 3.995C14.6449 4.28 14.732 4.565 14.8869 4.831C15.3807 5.6385 16.4747 5.9425 17.3267 5.4865C18.2852 4.9355 19.4954 5.268 20.0473 6.2085L20.6959 7.3295C21.2575 8.27 20.9477 9.4765 19.9795 10.018C19.1565 10.5025 18.8661 11.576 19.3599 12.393C19.5148 12.6495 19.689 12.868 19.9601 13.001ZM9.26172 11.5088C9.26172 13.0003 10.4913 14.1878 12.0113 14.1878C13.5313 14.1878 14.7319 13.0003 14.7319 11.5088C14.7319 10.0173 13.5313 8.82031 12.0113 8.82031C10.4913 8.82031 9.26172 10.0173 9.26172 11.5088Z" fill="#8C8994"/>
</svg>
