<svg width="249" height="92" viewBox="0 0 249 92" fill="none" xmlns="http://www.w3.org/2000/svg">
<path d="M201.377 63.1108H186.62C183.003 63.1108 179.974 61.0858 179.974 58.5209C179.974 57.2384 180.756 56.091 181.928 55.281C183.101 54.471 184.763 53.931 186.62 53.931H188.77C190.627 53.931 192.288 53.391 193.461 52.5811C194.634 51.7711 195.415 50.6236 195.415 49.3412C195.415 46.8437 192.483 44.7513 188.77 44.7513H140.881C141.468 44.0763 141.761 43.3338 141.761 42.5913C141.761 40.1614 138.927 38.204 135.408 38.204H117.035V35.5715H182.906C185.74 35.5715 188.379 34.7616 190.236 33.4791C192.092 32.1966 193.265 30.3742 193.265 28.4167C193.265 24.4343 188.574 21.2619 182.906 21.2619H141.175C140.099 19.372 137.363 17.9545 134.138 17.9545H110.682V9.85473H157.105C159.059 9.85473 160.916 9.31475 162.187 8.43727C163.457 7.5598 164.239 6.34483 164.239 4.92737C164.239 2.22744 161.014 0 157.105 0H61.4258C59.4712 0 57.6143 0.539985 56.3438 1.41746C55.0733 2.29494 54.2914 3.5099 54.2914 4.92737C54.2914 7.62729 57.5166 9.85473 61.4258 9.85473H63.8691C67.0942 9.85473 69.8307 11.6772 69.8307 13.9721C69.8307 15.1196 69.1466 16.1321 68.0716 16.8745C66.9965 17.617 65.5305 18.0895 63.8691 18.0895H52.0436C49.9913 18.0895 48.0366 18.697 46.6684 19.642C45.3002 20.5869 44.4206 21.8694 44.4206 23.3544C44.4206 26.2568 47.8412 28.5517 51.9459 28.5517H63.9668C67.8761 28.5517 71.1012 30.7792 71.1012 33.4791C71.1012 34.8291 70.3194 36.044 69.0489 36.9215C67.7784 37.799 66.0192 38.339 64.0646 38.339H53.3141C51.555 38.339 49.9913 38.8114 48.8185 39.6214C47.6457 40.4314 46.9616 41.5114 46.9616 42.7263C46.9616 45.1563 49.7958 47.1137 53.3141 47.1137H62.0122C66.9965 47.1137 71.0035 49.8811 71.0035 53.3236C71.0035 55.011 70.0262 56.631 68.3647 57.7109C66.7033 58.8584 64.4555 59.5334 62.0122 59.5334H49.8935C47.4503 59.5334 45.2024 60.2084 43.6387 61.3558C41.9773 62.4358 41 63.9883 41 65.6757C41 69.0506 45.007 71.818 49.8935 71.818H93.7749C95.1431 72.9655 97.2932 73.708 99.6387 73.708H111.171V81.4703H89.8656C87.7155 81.4703 85.8586 82.0778 84.4904 83.0227C83.1222 83.9677 82.2426 85.3177 82.2426 86.7351C82.2426 89.6376 85.6632 92 89.8656 92H191.506C193.656 92 195.513 91.3925 196.881 90.4475C198.25 89.5026 199.129 88.1526 199.129 86.7351C199.129 83.8327 195.709 81.4703 191.506 81.4703H188.476C185.349 81.4703 182.906 79.7153 182.906 77.6229C182.906 76.5429 183.492 75.5979 184.567 74.923C185.545 74.248 187.01 73.7755 188.574 73.7755H201.377C203.527 73.7755 205.384 73.168 206.752 72.223C208.12 71.2781 209 69.9281 209 68.5106C209 65.4732 205.579 63.1108 201.377 63.1108Z" fill="#F8FAFC"/>
<path d="M47.2561 75.7446V87.94H34.5604V75.7446H0V65.3252C1.01879 63.115 2.2335 60.4312 3.64413 57.2738C5.05476 54.1164 6.58294 50.7222 8.22867 47.0912C9.87441 43.4602 11.5593 39.7108 13.2834 35.843C15.0075 31.9752 16.6925 28.2258 18.3382 24.5948C19.9839 20.9638 21.4729 17.5696 22.8052 14.4122C24.2158 11.2548 25.4305 8.57102 26.4493 6.36084H39.7327L13.9887 64.4964H34.5604V40.5791H47.2561V64.4964H54.0741V75.7446H47.2561Z" fill="#071731"/>
<path d="M242.182 75.7446V87.94H229.486V75.7446H194.926V65.3252C195.945 63.115 197.159 60.4312 198.57 57.2738C199.981 54.1164 201.509 50.7222 203.155 47.0912C204.8 43.4602 206.485 39.7108 208.209 35.843C209.933 31.9752 211.618 28.2258 213.264 24.5948C214.91 20.9638 216.399 17.5696 217.731 14.4122C219.142 11.2548 220.356 8.57102 221.375 6.36084H234.659L208.915 64.4964H229.486V40.5791H242.182V64.4964H249V75.7446H242.182Z" fill="#071731"/>
<path d="M150.883 66.6876C150.883 70.1607 150.139 73.2392 148.65 75.923C147.161 78.6068 145.202 80.8564 142.772 82.6719C140.421 84.4085 137.757 85.7504 134.779 86.6976C131.801 87.5659 128.823 88 125.845 88C122.867 88 119.85 87.5659 116.793 86.6976C113.815 85.7504 111.111 84.4085 108.682 82.6719C106.331 80.8564 104.411 78.6068 102.922 75.923C101.433 73.2392 100.688 70.1607 100.688 66.6876V26.6676C100.688 23.1156 101.433 19.9976 102.922 17.3138C104.489 14.6301 106.449 12.3804 108.8 10.5649C111.229 8.7494 113.933 7.36805 116.911 6.42083C119.889 5.47361 122.867 5 125.845 5C128.823 5 131.801 5.47361 134.779 6.42083C137.757 7.36805 140.421 8.7494 142.772 10.5649C145.202 12.3804 147.161 14.6301 148.65 17.3138C150.139 19.9976 150.883 23.1156 150.883 26.6676V66.6876ZM138.305 29.5093C138.305 27.2202 137.913 25.2863 137.13 23.7076C136.346 22.1289 135.327 20.8659 134.073 19.9187C132.898 18.8925 131.566 18.1821 130.077 17.7875C128.666 17.3138 127.255 17.077 125.845 17.077C124.434 17.077 122.984 17.3138 121.495 17.7875C120.085 18.1821 118.752 18.8925 117.498 19.9187C116.323 20.8659 115.343 22.1289 114.56 23.7076C113.776 25.2863 113.384 27.2202 113.384 29.5093V63.8459C113.384 66.1351 113.776 68.069 114.56 69.6477C115.343 71.1474 116.323 72.4104 117.498 73.4365C118.752 74.3837 120.085 75.0942 121.495 75.5678C122.984 75.9624 124.434 76.1598 125.845 76.1598C127.255 76.1598 128.666 75.9624 130.077 75.5678C131.566 75.0942 132.898 74.3837 134.073 73.4365C135.327 72.4104 136.346 71.1474 137.13 69.6477C137.913 68.069 138.305 66.1351 138.305 63.8459V29.5093Z" fill="#F90000"/>
</svg>
