<svg width="169" height="141" viewBox="0 0 169 141" fill="none" xmlns="http://www.w3.org/2000/svg">
<path d="M160.757 91.2351H146.023C142.412 91.2351 139.387 88.3078 139.387 84.5998C139.387 82.7459 140.168 81.087 141.339 79.9161C142.51 78.7452 144.169 77.9646 146.023 77.9646H148.169C150.023 77.9646 151.682 77.1839 152.853 76.013C154.024 74.8421 154.805 73.1833 154.805 71.3293C154.805 67.7189 151.877 64.694 148.169 64.694H100.356C100.942 63.7182 101.234 62.6449 101.234 61.5715C101.234 58.0587 98.4046 55.229 94.8918 55.229H76.5472V51.4234H142.315C145.144 51.4234 147.779 50.2525 149.633 48.3985C151.487 46.5445 152.658 43.9099 152.658 41.0802C152.658 35.3231 147.974 30.737 142.315 30.737H100.649C99.5756 28.0048 96.8434 25.9557 93.6233 25.9557H70.2047V14.2463H116.554C118.506 14.2463 120.36 13.4657 121.628 12.1972C122.897 10.9287 123.677 9.1723 123.677 7.12317C123.677 3.22006 120.457 0 116.554 0H21.0256C19.074 0 17.22 0.780621 15.9515 2.04913C14.683 3.31764 13.9024 5.07404 13.9024 7.12317C13.9024 11.0263 17.1225 14.2463 21.0256 14.2463H23.465C26.6851 14.2463 29.4172 16.8809 29.4172 20.1986C29.4172 21.8574 28.7342 23.3211 27.6608 24.3944C26.5875 25.4678 25.1238 26.1508 23.465 26.1508H11.6581C9.60898 26.1508 7.65743 27.029 6.29134 28.3951C4.92525 29.7612 4.04705 31.6152 4.04705 33.7619C4.04705 37.9577 7.46227 41.2753 11.5605 41.2753H23.5626C27.4657 41.2753 30.6858 44.4954 30.6858 48.3985C30.6858 50.3501 29.9051 52.1065 28.6366 53.375C27.3681 54.6435 25.6117 55.4241 23.6602 55.4241H12.9266C11.1702 55.4241 9.60898 56.1072 8.43805 57.2781C7.26712 58.449 6.58407 60.0103 6.58407 61.7667C6.58407 65.2795 9.41383 68.1092 12.9266 68.1092H21.611C26.5875 68.1092 30.5882 72.1099 30.5882 77.0863C30.5882 79.5258 29.6124 81.8677 27.9536 83.4289C26.2948 85.0877 24.0505 86.0635 21.611 86.0635H9.5114C7.07196 86.0635 4.82767 87.0393 3.26643 88.6981C1.60761 90.2593 0.631836 92.5036 0.631836 94.9431C0.631836 99.822 4.63252 103.823 9.5114 103.823H53.3238C54.6899 105.481 56.8366 106.555 59.1784 106.555H70.6926V117.776H49.4207C47.274 117.776 45.42 118.654 44.0539 120.021C42.6878 121.387 41.8096 123.338 41.8096 125.387C41.8096 129.583 45.2248 132.998 49.4207 132.998H150.901C153.048 132.998 154.902 132.12 156.268 130.754C157.634 129.388 158.512 127.436 158.512 125.387C158.512 121.191 155.097 117.776 150.901 117.776H147.876C144.754 117.776 142.315 115.239 142.315 112.214C142.315 110.653 142.9 109.287 143.973 108.311C144.949 107.335 146.413 106.652 147.974 106.652H160.757C162.903 106.652 164.757 105.774 166.124 104.408C167.49 103.042 168.368 101.09 168.368 99.0413C168.368 94.6503 164.953 91.2351 160.757 91.2351Z" fill="#F8FAFC"/>
<path d="M133.728 21.2719V126.948C133.728 134.657 127.483 141 119.677 141H115.091C112.261 141 109.919 139.438 107.968 137.389C104.845 133.974 103.187 129.485 103.187 124.802V112.605C103.187 107.726 99.1859 103.725 94.307 103.725H37.8096V21.2719C37.8096 16.8809 41.4199 13.2705 45.8109 13.2705H125.727C130.216 13.2705 133.728 16.8809 133.728 21.2719Z" fill="#7B4CDF"/>
<path d="M115.188 140.999H31.076C21.611 140.999 13.9023 133.29 13.9023 123.825V112.604C13.9023 107.725 17.903 103.724 22.7819 103.724H94.5015C99.3804 103.724 103.381 107.725 103.381 112.604V124.801C103.381 129.387 105.04 133.973 108.162 137.388C110.016 139.438 112.358 140.999 115.188 140.999Z" fill="#AE8DF5"/>
<path d="M59.6659 57.6683C63.0611 57.6683 65.8133 54.916 65.8133 51.5209C65.8133 48.1258 63.0611 45.3735 59.6659 45.3735C56.2708 45.3735 53.5186 48.1258 53.5186 51.5209C53.5186 54.916 56.2708 57.6683 59.6659 57.6683Z" fill="white"/>
<path d="M112.553 57.7655H80.5478C77.1326 57.7655 74.4004 55.0333 74.4004 51.6181C74.4004 48.2029 77.1326 45.4707 80.5478 45.4707H112.651C116.066 45.4707 118.798 48.2029 118.798 51.6181C118.798 54.9357 115.968 57.7655 112.553 57.7655Z" fill="white"/>
<path d="M59.6659 76.4032C63.0611 76.4032 65.8133 73.6509 65.8133 70.2558C65.8133 66.8607 63.0611 64.1084 59.6659 64.1084C56.2708 64.1084 53.5186 66.8607 53.5186 70.2558C53.5186 73.6509 56.2708 76.4032 59.6659 76.4032Z" fill="white"/>
<path d="M112.553 76.4032H80.5478C77.1326 76.4032 74.4004 73.671 74.4004 70.2558C74.4004 66.8406 77.1326 64.1084 80.5478 64.1084H112.651C116.066 64.1084 118.798 66.8406 118.798 70.2558C118.798 73.671 115.968 76.4032 112.553 76.4032Z" fill="white"/>
<path d="M59.6659 95.1376C63.0611 95.1376 65.8133 92.3853 65.8133 88.9902C65.8133 85.5951 63.0611 82.8428 59.6659 82.8428C56.2708 82.8428 53.5186 85.5951 53.5186 88.9902C53.5186 92.3853 56.2708 95.1376 59.6659 95.1376Z" fill="white"/>
<path d="M112.553 95.1376H80.5478C77.1326 95.1376 74.4004 92.4054 74.4004 88.9902C74.4004 85.575 77.1326 82.8428 80.5478 82.8428H112.651C116.066 82.8428 118.798 85.575 118.798 88.9902C118.798 92.4054 115.968 95.1376 112.553 95.1376Z" fill="white"/>
<path d="M115.188 141H75.6695C75.3768 140.317 75.2792 139.634 75.2792 138.854C75.2792 137.097 75.9622 135.536 77.1332 134.365C78.3041 133.194 79.8654 132.511 81.6218 132.511H92.2577C94.2093 132.511 95.9657 131.73 97.2342 130.462C98.5027 129.193 99.2833 127.437 99.2833 125.485C99.2833 121.582 96.0632 118.362 92.1601 118.362H80.2557C76.0598 118.362 72.7422 114.947 72.7422 110.849C72.7422 108.8 73.6204 106.848 74.9865 105.482C75.7671 104.701 76.5477 104.214 77.6211 103.823H94.5996C99.4785 103.823 103.479 107.824 103.479 112.703V124.9C103.479 129.584 105.04 134.072 108.26 137.488C109.919 139.439 112.359 141 115.188 141Z" fill="#D4C2FB"/>
</svg>
