<svg width="231" height="174" viewBox="0 0 231 174" fill="none" xmlns="http://www.w3.org/2000/svg">
<path d="M77.1515 72.784L83.8403 72.9137L80.1 76.5152C80.0719 76.5386 80.049 76.5675 80.0325 76.6002C80.0161 76.6329 80.0066 76.6686 80.0046 76.7052C80.0026 76.7417 80.0082 76.7782 80.021 76.8125C80.0337 76.8468 80.0534 76.8781 80.0788 76.9044C80.1042 76.9308 80.1348 76.9516 80.1685 76.9656C80.2023 76.9796 80.2387 76.9865 80.2752 76.9858C80.3118 76.9851 80.3479 76.9769 80.3811 76.9617C80.4144 76.9465 80.4442 76.9246 80.4686 76.8974L84.2111 73.2982L84.0609 81.1495C84.06 81.1961 84.0683 81.2424 84.0853 81.2858C84.1024 81.3292 84.1277 81.3689 84.1601 81.4024C84.1924 81.436 84.231 81.4629 84.2737 81.4816C84.3165 81.5003 84.3624 81.5103 84.409 81.5112C84.4556 81.5121 84.502 81.5038 84.5454 81.4868C84.5888 81.4698 84.6284 81.4444 84.662 81.4121C84.6956 81.3798 84.7225 81.3412 84.7411 81.2984C84.7598 81.2557 84.7699 81.2097 84.7708 81.1631L84.9164 73.3118L89.3141 77.8825C89.3388 77.9074 89.3683 77.9271 89.4007 77.9406C89.4331 77.9541 89.4678 77.9611 89.5029 77.9611C89.538 77.9611 89.5728 77.9541 89.6052 77.9406C89.6376 77.9271 89.667 77.9074 89.6918 77.8825C89.7166 77.8579 89.7363 77.8287 89.7498 77.7965C89.7632 77.7643 89.7701 77.7297 89.7701 77.6948C89.7701 77.6599 89.7632 77.6253 89.7498 77.5931C89.7363 77.5609 89.7166 77.5316 89.6918 77.5071L85.294 72.9342L91.9828 73.0639C92.0726 73.0586 92.1571 73.0197 92.2194 72.9549C92.2818 72.89 92.3173 72.8041 92.3191 72.7141C92.3208 72.6242 92.2885 72.5369 92.2287 72.4698C92.1689 72.4026 92.0859 72.3604 91.9964 72.3518L85.3077 72.2244L89.0479 68.6229C89.0977 68.5727 89.1256 68.5048 89.1256 68.4341C89.1256 68.3634 89.0977 68.2955 89.0479 68.2453C88.9977 68.195 88.9301 68.1657 88.8591 68.1634C88.8242 68.1626 88.7895 68.1689 88.7571 68.1818C88.7247 68.1947 88.6951 68.214 88.6703 68.2384L84.9277 71.8399L85.0779 63.9863C85.0797 63.8922 85.0441 63.8012 84.9788 63.7334C84.9135 63.6655 84.8239 63.6264 84.7298 63.6246C84.6357 63.6228 84.5447 63.6584 84.4769 63.7237C84.409 63.789 84.3699 63.8785 84.3681 63.9727L84.2339 71.833L79.8361 67.2601C79.7867 67.21 79.7199 67.1807 79.6496 67.1782C79.5786 67.1779 79.5102 67.2048 79.4585 67.2533C79.4336 67.2781 79.4138 67.3075 79.4003 67.3399C79.3868 67.3723 79.3799 67.4071 79.3799 67.4422C79.3799 67.4773 79.3868 67.512 79.4003 67.5444C79.4138 67.5768 79.4336 67.6062 79.4585 67.631L83.8562 72.2016L77.1675 72.0742C77.1209 72.0733 77.0745 72.0816 77.0311 72.0986C76.9877 72.1156 76.9481 72.141 76.9145 72.1733C76.8809 72.2057 76.854 72.2443 76.8354 72.287C76.8167 72.3297 76.8066 72.3757 76.8057 72.4223C76.8048 72.4689 76.8131 72.5152 76.8301 72.5586C76.8471 72.602 76.8725 72.6417 76.9049 72.6753C76.9372 72.7088 76.9758 72.7357 77.0185 72.7544C77.0612 72.7731 77.1072 72.7831 77.1538 72.784H77.1515Z" fill="#7B4CDF"/>
<path d="M14.7256 133.09L8.30538 133.483L11.6133 129.734C11.6522 129.682 11.6701 129.618 11.6635 129.553C11.6569 129.489 11.6263 129.429 11.5778 129.387C11.5293 129.344 11.4664 129.321 11.4017 129.322C11.337 129.324 11.2753 129.35 11.2289 129.395L7.92317 133.146L7.46815 125.611C7.46272 125.521 7.42156 125.436 7.35372 125.376C7.28588 125.316 7.19692 125.285 7.10641 125.291C7.0159 125.296 6.93126 125.337 6.8711 125.405C6.81094 125.473 6.7802 125.562 6.78563 125.652L7.24064 133.19L2.67229 129.145C2.64719 129.122 2.61793 129.105 2.58617 129.094C2.5544 129.083 2.52077 129.078 2.48718 129.08C2.45359 129.082 2.4207 129.09 2.3904 129.105C2.36009 129.12 2.33296 129.14 2.31055 129.165C2.28814 129.19 2.2709 129.219 2.2598 129.251C2.2487 129.283 2.24397 129.317 2.24587 129.35C2.24777 129.384 2.25627 129.417 2.27088 129.447C2.28549 129.477 2.30593 129.504 2.33103 129.527L6.89711 133.57L0.479115 133.961C0.4343 133.964 0.390453 133.975 0.350078 133.995C0.309703 134.014 0.273591 134.042 0.243804 134.075C0.214016 134.109 0.191136 134.148 0.176471 134.191C0.161805 134.233 0.15564 134.278 0.158329 134.323C0.161017 134.368 0.172508 134.411 0.192143 134.452C0.211777 134.492 0.239171 134.528 0.272761 134.558C0.306351 134.588 0.345479 134.611 0.387912 134.625C0.430345 134.64 0.475252 134.646 0.520067 134.644L6.94033 134.25L3.63465 137.99C3.6122 138.015 3.59498 138.045 3.58396 138.077C3.57295 138.108 3.56837 138.142 3.57048 138.176C3.5726 138.209 3.58137 138.242 3.59629 138.273C3.61121 138.303 3.63198 138.33 3.6574 138.352C3.68214 138.375 3.71126 138.392 3.74295 138.403C3.77464 138.414 3.80824 138.418 3.84168 138.416C3.87552 138.414 3.90865 138.405 3.93912 138.39C3.96959 138.375 3.99679 138.355 4.01913 138.329L7.3362 134.591L7.79121 142.126C7.7939 142.171 7.80539 142.215 7.82502 142.255C7.84466 142.296 7.87205 142.332 7.90564 142.362C7.97348 142.422 8.06244 142.452 8.15295 142.447C8.19776 142.444 8.24161 142.433 8.28198 142.413C8.32236 142.394 8.35847 142.366 8.38826 142.333C8.41805 142.299 8.44093 142.26 8.45559 142.217C8.47026 142.175 8.47642 142.13 8.47373 142.085L8.01872 134.548L12.5689 138.591C12.621 138.634 12.6875 138.657 12.7554 138.654C12.8075 138.653 12.8578 138.635 12.8997 138.604C12.9415 138.573 12.9729 138.53 12.9897 138.48C13.0065 138.431 13.0078 138.378 12.9936 138.327C12.9794 138.277 12.9503 138.233 12.9101 138.199L8.34178 134.159L14.762 133.765C14.8526 133.76 14.9371 133.718 14.997 133.65C15.057 133.582 15.0874 133.493 15.0817 133.402C15.076 133.312 15.0345 133.227 14.9665 133.167C14.8984 133.108 14.8093 133.077 14.7188 133.083L14.7256 133.09Z" fill="#7B4CDF"/>
<path d="M223.191 29.5878L215.456 29.9564L219.496 25.5109C219.528 25.4818 219.553 25.4466 219.57 25.4073C219.587 25.3681 219.595 25.3258 219.595 25.283C219.595 25.2402 219.586 25.198 219.569 25.1589C219.551 25.1198 219.526 25.0847 219.495 25.0558C219.463 25.0269 219.426 25.0049 219.385 24.9911C219.345 24.9774 219.302 24.9721 219.259 24.9758C219.217 24.9794 219.175 24.9919 219.138 25.0123C219.1 25.0328 219.067 25.0608 219.041 25.0946L215.001 29.5423L214.566 20.4648C214.566 20.4088 214.555 20.3533 214.533 20.3018C214.512 20.2502 214.479 20.2037 214.439 20.165C214.398 20.1263 214.351 20.0962 214.298 20.0767C214.246 20.0571 214.19 20.0485 214.134 20.0513C214.078 20.0541 214.023 20.0682 213.973 20.0929C213.923 20.1176 213.878 20.1522 213.841 20.1948C213.805 20.2373 213.778 20.2868 213.761 20.3403C213.744 20.3938 213.739 20.4501 213.745 20.5057L214.179 29.581L208.746 24.6441C208.685 24.5991 208.609 24.5785 208.533 24.5862C208.457 24.5939 208.387 24.6294 208.335 24.6858C208.284 24.7422 208.255 24.8156 208.255 24.8919C208.254 24.9682 208.282 25.042 208.332 25.0991L213.763 30.036L206.028 30.4046C205.923 30.4156 205.827 30.4661 205.758 30.5459C205.69 30.6256 205.654 30.7285 205.659 30.8335C205.664 30.9385 205.709 31.0376 205.785 31.1106C205.861 31.1835 205.961 31.2248 206.066 31.2259L213.802 30.8573L209.761 35.3028C209.734 35.3327 209.712 35.3678 209.698 35.406C209.684 35.4443 209.678 35.4849 209.68 35.5255C209.682 35.5662 209.692 35.606 209.709 35.6428C209.727 35.6795 209.751 35.7125 209.782 35.7397C209.812 35.7674 209.848 35.7887 209.887 35.8023C209.926 35.816 209.968 35.8218 210.009 35.8193C210.05 35.8171 210.09 35.807 210.126 35.7894C210.163 35.7718 210.196 35.7472 210.223 35.7169L214.263 31.2714L214.698 40.3467C214.697 40.4028 214.708 40.4583 214.73 40.5101C214.752 40.5618 214.784 40.6085 214.824 40.6475C214.864 40.6864 214.912 40.7166 214.965 40.7364C215.017 40.7562 215.073 40.765 215.129 40.7623C215.185 40.7597 215.24 40.7457 215.29 40.7211C215.341 40.6965 215.386 40.6618 215.422 40.6193C215.459 40.5767 215.486 40.5272 215.503 40.4737C215.52 40.4201 215.525 40.3638 215.519 40.308L215.087 31.2327L220.518 36.1696C220.548 36.1976 220.584 36.219 220.623 36.2327C220.662 36.2464 220.704 36.252 220.745 36.2493C220.826 36.2444 220.902 36.2086 220.957 36.1492C220.984 36.1193 221.006 36.0842 221.02 36.046C221.034 36.0077 221.04 35.9671 221.038 35.9265C221.036 35.8858 221.026 35.846 221.009 35.8092C220.991 35.7725 220.967 35.7395 220.936 35.7124L215.506 30.7686L223.241 30.4C223.345 30.3891 223.442 30.3385 223.51 30.2588C223.579 30.179 223.614 30.0761 223.609 29.9711C223.604 29.8661 223.559 29.767 223.484 29.6941C223.408 29.6211 223.307 29.5799 223.202 29.5787L223.191 29.5878Z" fill="#7B4CDF"/>
<path d="M115.926 12.1808L106.473 12.133L111.687 6.97311C111.753 6.90173 111.789 6.80773 111.787 6.71063C111.786 6.61352 111.747 6.52078 111.678 6.45167C111.61 6.38256 111.518 6.34239 111.421 6.33951C111.324 6.33663 111.229 6.37125 111.157 6.43619L105.943 11.5983L106 0.502792C106 0.436764 105.987 0.371382 105.961 0.310381C105.936 0.249379 105.899 0.193953 105.852 0.147264C105.806 0.100576 105.75 0.0635391 105.689 0.0382715C105.628 0.0130038 105.563 0 105.497 0C105.431 0 105.365 0.0130038 105.304 0.0382715C105.243 0.0635391 105.188 0.100576 105.141 0.147264C105.095 0.193953 105.058 0.249379 105.032 0.310381C105.007 0.371382 104.994 0.436764 104.994 0.502792L104.937 11.5915L98.6306 5.2213C98.5958 5.1862 98.5545 5.15829 98.5089 5.13918C98.4633 5.12006 98.4144 5.11012 98.3649 5.1099C98.3155 5.10969 98.2665 5.11922 98.2207 5.13794C98.175 5.15667 98.1334 5.18422 98.0983 5.21902C98.0632 5.25383 98.0353 5.29521 98.0162 5.3408C97.997 5.38639 97.9871 5.4353 97.9869 5.48474C97.9867 5.53417 97.9962 5.58316 98.0149 5.62892C98.0336 5.67467 98.0612 5.71629 98.096 5.75139L104.4 12.1216L94.9496 12.0738C94.8162 12.0738 94.6883 12.1268 94.594 12.2211C94.4997 12.3154 94.4468 12.4433 94.4468 12.5766C94.4468 12.71 94.4997 12.8379 94.594 12.9321C94.6883 13.0264 94.8162 13.0794 94.9496 13.0794L104.4 13.1272L99.1858 18.2871C99.1153 18.3582 99.0758 18.4543 99.0758 18.5544C99.0758 18.6545 99.1153 18.7506 99.1858 18.8217C99.2569 18.8916 99.3522 18.9315 99.4519 18.9332C99.5516 18.9333 99.6473 18.8941 99.7181 18.824L104.937 13.6618L104.88 24.7574C104.88 24.8907 104.933 25.0186 105.028 25.1129C105.122 25.2072 105.25 25.2602 105.383 25.2602C105.516 25.2602 105.644 25.2072 105.739 25.1129C105.833 25.0186 105.886 24.8907 105.886 24.7574L105.943 13.6641L112.247 20.0343C112.318 20.1041 112.414 20.1432 112.513 20.1432C112.613 20.1432 112.708 20.1041 112.779 20.0343C112.814 19.9992 112.842 19.9576 112.861 19.9117C112.88 19.8658 112.89 19.8167 112.89 19.767C112.89 19.7173 112.88 19.6682 112.861 19.6223C112.842 19.5764 112.814 19.5348 112.779 19.4997L106.475 13.1295L115.926 13.1772C116.059 13.1772 116.187 13.1243 116.281 13.03C116.376 12.9357 116.429 12.8078 116.429 12.6744C116.429 12.5411 116.376 12.4132 116.281 12.3189C116.187 12.2246 116.059 12.1717 115.926 12.1717V12.1808Z" fill="#7B4CDF"/>
<path d="M176.652 65.4314C176.624 65.4337 176.596 65.4337 176.568 65.4314C176.459 65.4239 176.352 65.3949 176.254 65.3461C176.156 65.2973 176.069 65.2296 175.997 65.1469C175.925 65.0643 175.871 64.9683 175.836 64.8644C175.802 64.7606 175.788 64.6509 175.796 64.5418C176.18 59.2242 176.566 53.9256 176.954 48.6459L177.532 40.7582C177.539 40.648 177.567 40.5402 177.615 40.441C177.664 40.3418 177.731 40.2532 177.814 40.1804C177.897 40.1076 177.994 40.0521 178.099 40.0169C178.203 39.9818 178.314 39.9678 178.424 39.9758C178.534 39.9838 178.641 40.0136 178.74 40.0635C178.838 40.1134 178.926 40.1823 178.997 40.2663C179.069 40.3503 179.123 40.4478 179.157 40.5529C179.19 40.658 179.203 40.7688 179.193 40.8788L178.618 48.7665C178.231 54.0583 177.844 59.3585 177.457 64.667C177.441 64.8713 177.35 65.0625 177.201 65.2036C177.052 65.3447 176.857 65.4259 176.652 65.4314Z" fill="#7B4CDF"/>
<path d="M192.073 75.7465C191.907 75.7513 191.744 75.7067 191.604 75.6185C191.464 75.5302 191.354 75.4022 191.287 75.2508C191.22 75.0994 191.2 74.9316 191.229 74.7686C191.258 74.6057 191.334 74.4551 191.449 74.336C194.739 70.9074 198.215 67.4698 201.58 64.1436C203.13 62.6102 204.733 61.0268 206.287 59.4706C206.444 59.3144 206.656 59.2266 206.877 59.2266C207.098 59.2266 207.31 59.3144 207.466 59.4706C207.622 59.6269 207.71 59.8389 207.71 60.0599C207.71 60.2809 207.622 60.4928 207.466 60.6491C205.907 62.2076 204.301 63.7933 202.75 65.329C199.394 68.646 195.924 72.0768 192.651 75.4895C192.576 75.5682 192.486 75.6314 192.387 75.6755C192.288 75.7196 192.181 75.7438 192.073 75.7465Z" fill="#7B4CDF"/>
<path d="M157.751 73C157.61 73.004 157.47 72.9721 157.345 72.9072C157.22 72.8423 157.114 72.7466 157.036 72.6291L148.323 59.6726C148.203 59.4894 148.16 59.2664 148.203 59.0518C148.247 58.8372 148.373 58.6483 148.554 58.5259C148.736 58.4036 148.958 58.3577 149.173 58.3981C149.388 58.4386 149.579 58.5621 149.704 58.7421L158.42 71.6986C158.503 71.8224 158.551 71.9662 158.56 72.115C158.568 72.2638 158.537 72.4123 158.468 72.5447C158.4 72.6772 158.297 72.789 158.171 72.8682C158.045 72.9475 157.9 72.9914 157.751 72.9954V73Z" fill="#7B4CDF"/>
<path d="M29.9844 26.318L29.791 25.4375L29.5135 26.9663C28.6305 31.8282 25.9103 36.1639 21.917 39.0743C25.803 42.3724 28.5009 46.8532 29.5977 51.8307L29.791 52.7111L30.0686 51.1823C30.9512 46.3208 33.6705 41.9853 37.6628 39.0743C33.777 35.7764 31.0798 31.2954 29.9844 26.318Z" fill="#7B4CDF"/>
<path d="M151 21.5811L150.912 21.1807L150.787 21.8632C150.384 24.0745 149.147 26.0464 147.331 27.3711C149.098 28.8708 150.325 30.9088 150.823 33.1726L150.912 33.573L151.039 32.8905C151.44 30.679 152.677 28.7067 154.493 27.3825C152.725 25.8829 151.498 23.8449 151 21.5811Z" fill="#7B4CDF"/>
<path d="M226.167 134.966L226.281 135.478L226.44 134.591C226.952 131.773 228.528 129.261 230.842 127.575C228.59 125.663 227.027 123.066 226.392 120.181L226.281 119.671L226.119 120.556C225.608 123.374 224.031 125.887 221.717 127.575C223.969 129.485 225.532 132.082 226.167 134.966Z" fill="#7B4CDF"/>
<path d="M222.083 79.4163C222.293 78.4236 222.328 77.4019 222.185 76.3973C222.103 75.7011 221.958 74.9935 221.134 74.8548C220.224 74.7023 219.876 75.4167 219.576 76.0878C219.466 76.4038 219.383 76.7289 219.33 77.0593C218.81 78.3465 218.469 79.6992 218.318 81.0794C218.213 81.3478 218.09 81.6117 218.006 81.8893C215.59 90.6188 214.227 99.5507 212.905 108.489C212.384 112.018 211.872 115.542 211.411 119.082C211.213 120.582 211.142 122.092 211.709 123.564C212.391 125.314 213.456 125.516 214.753 124.119C215.833 122.954 216.279 121.523 216.529 120.024C217.992 111.208 219.517 102.401 220.87 93.5673C221.585 88.8806 222.238 84.178 222.083 79.4163Z" fill="#7B4CDF"/>
<path d="M210.901 128.996C209.852 128.915 209.242 129.533 209.156 130.55C209.065 131.633 209.595 132.37 210.705 132.459C211.754 132.546 212.309 131.918 212.491 130.81C212.45 129.856 212.025 129.083 210.901 128.996Z" fill="#7B4CDF"/>
<path d="M204.198 88.9484C200.947 89.2078 197.696 89.4785 194.445 89.7424L192.991 89.8221C189.035 89.7561 185.124 89.1395 181.181 88.912C180.234 88.6486 179.255 88.5199 178.272 88.5298C178.272 88.0976 178.256 87.6607 178.306 87.233C178.654 84.2754 178.952 81.3315 178.672 78.3602C178.406 75.5232 178.265 72.6316 176.57 70.1517C175.466 68.8754 174.643 69.0324 173.824 70.6727C173.408 71.2905 173.158 72.0051 173.098 72.7476C172.696 73.609 172.479 74.5453 172.461 75.4959C171.729 78.2262 171.245 81.0169 171.014 83.8341C170.824 85.0171 170.635 86.1986 170.445 87.3786C169.82 87.5879 169.194 87.4446 168.564 87.3945C165.315 87.1375 162.066 86.8167 158.801 87.0965C156.214 86.9027 153.613 87.099 151.084 87.6789C147.672 87.9952 144.366 88.6572 141.274 90.1952C140.282 90.3317 139.522 90.9755 138.665 91.401C138.292 91.5875 138.06 91.9219 138.21 92.3588C138.36 92.7956 138.785 92.8434 139.179 92.7205C140.316 92.3679 141.454 91.9879 142.603 91.6171C145.951 90.9476 149.339 90.4917 152.745 90.252C154.194 90.2953 155.646 90.3704 157.095 90.3772C160.963 90.3954 164.81 90.9528 168.673 91.1257C169.683 91.1939 169.838 91.7217 169.701 92.6614C169.099 96.6044 168.746 100.582 168.643 104.569C168.555 108.955 168.416 113.369 169.073 117.721C169.608 121.291 168 125.718 166.362 128.869C166.098 129.372 165.74 129.92 165.178 130.007C164.619 128.291 164.883 126.665 164.821 124.906C164.888 124.575 164.931 124.24 164.949 123.903C164.892 119.353 164.799 114.823 164.221 110.316C164.032 108.828 163.948 107.306 163.377 105.884C163.338 104.935 162.831 104.346 161.916 104.219C160.929 104.082 160.276 104.576 159.973 105.527C159.599 106.283 159.394 107.111 159.373 107.954C159.172 108.052 159.079 108.739 158.735 108.039C158.485 107.531 158.164 107.044 157.557 106.876C155.946 105.754 154.254 105.566 152.468 106.421C152.112 106.513 151.779 106.674 151.486 106.895C151.194 107.117 150.948 107.394 150.764 107.711C148.296 110.42 146.548 113.706 145.681 117.266C145.247 119.068 145.297 120.906 144.917 122.699C144.519 124.588 143.629 126.339 142.685 128.005C142.38 128.544 141.32 130.412 140.48 129.838C139.914 129.454 140.601 127.861 140.678 127.322C140.794 126.501 140.906 125.682 141.031 124.861C141.27 123.168 141.5 121.475 141.675 119.776C141.932 117.273 142.278 114.752 141.486 112.268C141.031 109.765 139.893 109.213 137.809 110.5C137.322 110.803 136.856 111.14 136.381 111.46C135.95 111.542 135.559 111.768 135.273 112.1C135.226 112.088 135.177 112.089 135.131 112.103C135.085 112.117 135.043 112.143 135.011 112.179C134.581 112.179 134.419 112.045 134.556 111.563C134.784 110.77 134.951 109.961 135.054 109.142C135.234 107.527 134.827 107.094 133.164 106.985C131.865 106.699 130.834 107.144 130.004 108.141C128.577 109.811 128.62 112.25 130.393 113.651C130.804 113.977 131.462 114.131 131.603 114.691C131.744 115.251 131.212 116.072 130.975 116.572C130.347 117.908 129.583 119.173 128.855 120.456C127.294 123.208 125.894 126.047 124.659 128.96C124.434 127.033 123.963 125.144 123.258 123.336C123.258 122.815 123.21 122.306 122.851 121.885C122.801 121.559 122.725 121.238 122.623 120.925C122.323 120.169 121.87 119.539 120.942 119.614C120.075 119.682 119.75 120.356 119.547 121.073C119.368 121.716 119.174 122.374 119.333 123.059C119.106 123.709 119.14 124.38 119.188 125.052C119.165 125.137 119.15 125.223 119.142 125.311C118.798 127.399 117.865 129.345 116.453 130.921C116.36 131.024 116.267 131.128 116.171 131.231C115.598 131.135 115.034 131.538 114.451 131.244C113.901 129.898 113.907 128.485 113.969 127.072C114.167 122.453 114.337 117.833 114.854 113.233C115.309 112.302 115.377 110.983 116.951 111.224C117.108 111.406 117.263 111.59 117.422 111.77C117.693 112.081 117.846 112.668 118.392 112.452C118.994 112.225 119.004 111.581 118.915 111.074C118.774 110.275 118.612 109.435 117.743 109.026C115.643 107.39 113.104 107.702 111.257 109.822C110.504 110.341 110.099 111.133 109.712 111.911C108.528 114.286 107.763 116.847 107.451 119.482C107.299 120.789 107.254 122.106 107.314 123.42C107.367 124.635 107.728 125.893 107.621 127.108C107.562 127.571 107.445 128.024 107.273 128.457C106.634 130.305 105.961 132.207 104.646 133.651C104.602 132.514 104.318 131.376 104.243 130.221C104.168 129.065 104.138 127.845 104.059 126.658C103.895 124.237 103.831 121.805 103.376 119.419C103.368 119.133 103.309 118.851 103.201 118.586C102.91 115.36 102.473 112.175 100.471 109.461C99.3332 107.966 98.3095 107.782 96.8011 108.796C94.8604 110.236 93.9481 112.32 93.3179 114.536C92.6354 116.92 92.0848 119.341 91.4819 121.746C91.3591 122.228 91.2544 122.704 90.7994 121.926C90.5561 119.08 89.9443 116.278 88.9794 113.59C88.9202 112.598 88.3287 112.072 87.4027 112.029C86.4768 111.986 86.024 112.671 85.7943 113.465C85.5645 114.259 85.3779 115.057 85.5667 115.908C85.18 117.467 85.4689 119.271 85.3392 120.879C85.325 121.277 85.2584 121.671 85.1413 122.051C84.9204 122.586 84.5956 123.073 84.1858 123.482C83.6898 124.034 83.1726 124.565 82.6342 125.074C82.2565 123.575 81.9335 122.021 80.6685 120.979C79.076 119.676 77.4834 120.738 76.9306 122.472C76.3777 124.205 76.6166 126.794 78.4799 127.645C78.8233 127.8 79.1939 127.885 79.5703 127.895C79.9468 127.906 80.3215 127.842 80.6731 127.707C80.9412 128.739 81.0327 129.809 80.9438 130.871C80.7686 132.953 79.9064 134.93 78.7825 136.691C78.5413 137.069 78.2592 137.462 77.836 137.601C77.6188 137.662 77.3903 137.67 77.1692 137.625C76.9482 137.581 76.7408 137.484 76.5643 137.344C75.4108 136.509 74.635 135.437 74.3665 134.02C73.3814 128.831 72.8946 123.598 73.5384 118.322C73.7113 116.914 74.8443 112.031 77.2218 113.886C78.0954 114.568 78.2979 115.849 78.5868 116.855C78.6687 117.148 78.8143 117.492 79.1124 117.537C79.2153 117.542 79.3173 117.517 79.4059 117.464C79.4945 117.411 79.5657 117.334 79.6106 117.241C79.6971 117.055 79.7392 116.851 79.7335 116.645C79.7812 115.257 79.3603 113.487 78.5959 112.323C77.356 110.418 74.3575 110.047 72.526 111.251C71.4431 111.608 70.7719 112.455 70.1417 113.317C69.0419 114.816 68.2671 116.529 67.8667 118.345C66.8079 123.071 66.8141 127.974 67.8849 132.698C68.49 135.406 69.6844 137.853 72.3008 139.275C74.5759 140.843 76.7122 140.788 78.5686 139.114C79.2511 138.779 79.6424 138.204 79.9086 137.521C80.4562 136.934 80.8125 136.195 80.9301 135.401C81.2758 134.968 81.4535 134.425 81.4307 133.872C82.2497 131.979 82.4453 129.704 82.1883 127.668C82.1569 127.547 82.1723 127.419 82.2315 127.309C82.2781 127.254 82.3365 127.212 82.4021 127.183C83.7399 126.469 84.5657 125.407 85.5508 124.251C85.6282 125.243 85.6555 125.946 85.7374 126.64C85.9899 128.74 85.8466 130.892 86.5701 132.928C86.6442 134.101 87.0593 135.227 87.7645 136.168C88.0127 136.536 88.3671 136.821 88.7808 136.983C89.1944 137.146 89.6477 137.179 90.0805 137.078C91.0451 136.88 91.5775 136.236 91.8027 135.305C92.006 134.501 92.0477 133.664 91.9256 132.844C92.0773 130.88 92.2221 128.917 92.3601 126.956C92.442 126.633 92.5399 126.31 92.6036 125.982C93.4977 121.298 94.1961 116.559 96.2619 112.184L97.338 110.992C97.9181 111.467 97.8999 112.154 97.9705 112.812C98.4505 117.219 98.3413 121.655 98.6712 126.071C98.7386 125.924 98.7934 125.772 98.835 125.616C98.835 125.641 98.835 125.666 98.835 125.691C98.8297 125.836 98.7695 125.973 98.6666 126.075C98.5138 128.445 98.6668 130.825 99.1217 133.155C99.3492 134.393 99.6745 135.617 100.61 136.557C102.291 138.87 104.523 138.852 105.731 136.516C106.361 135.731 106.777 134.364 107.13 133.39C107.387 132.68 107.585 131.956 107.787 131.228C107.99 130.5 108.201 129.729 108.363 128.953C108.818 130.803 109.573 132.634 111.282 133.686C111.463 133.919 111.693 134.109 111.957 134.242C112.221 134.375 112.511 134.448 112.806 134.455C114.722 135.062 116.233 134.389 117.509 132.969C117.706 132.886 117.883 132.759 118.025 132.599C118.168 132.439 118.273 132.249 118.332 132.043C118.938 131.781 118.819 130.805 119.62 130.737C119.659 131.103 119.695 131.47 119.732 131.838L120.086 136.511C120.07 136.518 120.056 136.528 120.044 136.541C120.033 136.554 120.025 136.57 120.021 136.587C120.017 136.604 120.018 136.622 120.022 136.639C120.027 136.656 120.036 136.671 120.048 136.684C116.18 144.918 112.654 153.258 111.858 162.456C111.66 164.718 111.155 167.006 111.955 169.25C112.085 170.36 112.431 171.363 113.352 172.084C113.622 172.55 114.06 172.894 114.576 173.047C117.186 174.004 119.368 173.094 121.363 171.429C123.708 169.798 124.775 167.334 125.458 164.736C128.384 153.815 128.397 142.895 125.342 131.997C125.156 131.655 125.065 131.27 125.078 130.88C125.167 131.253 125.253 131.624 125.342 131.997C125.142 130.908 125.44 129.961 125.949 128.976C127.223 126.514 128.377 123.991 129.576 121.496C131.045 119.317 132.332 117.019 133.421 114.627C134.253 114.411 135.129 114.3 135.746 113.597C136.503 113.476 136.822 112.532 137.666 112.568C137.484 113.023 137.313 113.478 137.118 113.911C135.596 117.362 134.369 120.913 134.294 124.719C134.256 126.66 134.442 128.708 135.63 130.321C136.767 131.877 139.013 132.725 140.881 131.995C143.649 130.91 144.976 127.477 145.64 124.829C145.413 125.771 146.523 127.677 146.953 128.469C147.558 129.593 148.773 130.453 149.867 131.053C151.041 131.693 152.322 132.236 153.621 131.572C154.831 130.935 155.876 130.027 156.677 128.919C157.457 127.852 158.085 126.678 158.89 125.629C159.029 127.311 159.698 129.358 160.665 130.739C161.575 132.038 163.668 133.306 165.144 132.129C166.621 130.953 168.102 129.272 168.857 127.509C169.613 125.746 169.897 123.741 169.952 121.789C171.264 125.32 172.052 128.783 175.209 131.169C176.988 132.514 178.597 132.502 180.262 131.137C183.784 128.25 184.521 123.491 185.538 119.366C185.939 117.737 185.875 116.01 186.596 114.452C187.263 115.528 188.089 116.5 188.685 117.623C189.347 118.863 189.326 119.55 188.457 120.663C185.873 123.928 183.611 129.652 185.693 133.663C186.164 134.953 187.233 135.483 188.455 135.758C191.897 136.527 195.376 133.924 195.985 129.95C196.394 127.166 196.111 124.324 195.162 121.675C194.736 120.458 194.252 119.077 193.403 118.094C192.65 117.221 192.809 116.659 193.521 115.692C194.533 114.324 195.65 113.037 196.861 111.843C197.027 111.681 197.196 111.403 197.025 111.249C196.854 111.094 196.654 111.235 196.499 111.353C195.606 112.039 194.765 112.79 193.983 113.601C193.462 114.138 192.436 114.966 192.322 115.726C190.73 113.663 189.365 111.467 187.183 109.954C187.411 108.86 187.595 107.77 186.956 106.742C186.91 106.516 186.791 106.311 186.617 106.16C186.444 106.008 186.225 105.918 185.995 105.902C184.476 105.409 184.023 105.657 183.454 107.295C183.424 107.317 183.404 107.349 183.398 107.386C183.391 107.422 183.399 107.46 183.42 107.49C183.131 108.284 183.113 109.056 183.538 109.788C183.562 109.842 183.592 109.893 183.627 109.941C183.831 110.901 184.305 111.783 184.992 112.484C184.995 113.757 184.851 115.025 184.564 116.265C184.355 117.287 184.371 118.286 184.166 119.316C183.684 121.736 182.995 124.109 182.105 126.41C181.634 127.632 181.054 128.897 179.964 129.625C179.868 129.704 179.746 129.749 179.621 129.75C179.309 129.72 178.447 128.965 178.203 128.721C177.678 128.196 177.66 127.311 177.578 126.612C177.22 123.586 176.895 120.556 176.561 117.528C176.406 115.48 176.408 113.433 176.067 111.426C175.913 110.508 175.807 109.582 175.749 108.653C175.724 108.077 175.703 107.5 175.685 106.924C175.642 101.953 176.745 97.0841 177.621 92.1927L178.381 92.154C180.333 92.609 182.333 92.6386 184.316 92.7228C187.57 92.8616 190.835 93.1391 194.065 92.4293C196.998 92.0926 199.912 91.6467 202.758 90.8367C203.427 90.9141 203.989 90.5751 204.578 90.343C204.979 90.1815 205.429 89.954 205.284 89.3898C205.138 88.8256 204.626 88.9143 204.198 88.9484ZM80.8664 125.541C80.8127 125.551 80.763 125.576 80.7231 125.614H80.7572L79.2966 125.486C78.9878 125.33 78.7519 125.06 78.6391 124.733C78.7202 124.627 78.7649 124.498 78.7665 124.365C78.7438 124.219 78.7142 124.076 78.6801 123.935L78.7961 122.722C78.8303 122.681 78.8644 122.64 78.9008 122.604C78.9951 122.531 79.0948 122.466 79.1988 122.408C79.9883 122.328 80.2271 122.965 80.5798 123.468C80.9711 124.021 80.8073 124.774 81.2623 125.304C81.1816 125.307 81.1029 125.33 81.0336 125.371C80.9643 125.412 80.9068 125.471 80.8664 125.541ZM97.1355 109.16V109.14H97.1628L97.1355 109.16ZM113.684 168.144C113.638 168.118 113.595 168.086 113.557 168.048L113.68 168.096L113.684 168.144ZM119.429 163.252C119.045 165.584 118.162 167.652 116.289 169.202C115.978 169.591 115.568 169.673 115.152 169.7C114.906 169.625 114.663 169.525 114.419 169.443C114.431 169.43 114.44 169.415 114.444 169.398C114.449 169.381 114.45 169.363 114.447 169.346C114.444 169.329 114.437 169.313 114.427 169.299C114.416 169.285 114.403 169.273 114.387 169.265C114.517 168.617 114.16 168.094 113.932 167.539C113.869 166.228 113.8 164.925 113.83 163.607C114.014 155.392 116.849 147.909 120.15 140.563C120.188 140.49 120.238 140.423 120.298 140.365C121.124 148.037 120.683 155.67 119.429 163.255V163.252ZM132.649 111.356L132.329 111.911C131.94 111.656 131.53 111.376 131.353 110.946C131.1 110.343 131.385 109.663 131.664 109.071C131.821 108.742 132.026 108.373 132.383 108.303C132.59 108.282 132.799 108.316 132.988 108.4C133.116 108.439 133.239 108.489 133.357 108.55C133.197 109.504 132.961 110.443 132.649 111.358V111.356ZM158.813 112.894C158.795 113.039 158.776 113.185 158.761 113.328C158.513 115.67 158.437 118.028 158.533 120.381C158.56 121.425 158.829 122.697 158.633 123.721C158.49 124.478 157.951 125.165 157.455 125.734L156.24 127.142C155.892 127.595 155.47 127.984 154.991 128.294C152.955 129.443 152.727 126.508 152.613 125.134C152.468 123.343 152.693 121.548 152.786 119.76C152.874 117.577 153.161 115.406 153.644 113.276C154.012 111.752 154.256 109.959 155.273 108.701C155.992 107.809 156.41 108.018 157.25 108.58C157.88 109.001 158.588 109.426 158.824 110.191C159.065 111.026 158.906 112.043 158.804 112.898L158.813 112.894ZM190.025 120.822C190.464 122.322 190.935 123.677 191.051 125.24C191.127 126.186 191.07 127.138 190.88 128.068C190.555 129.433 189.629 130.953 188.396 131.672C188.238 131.775 188.059 131.842 187.872 131.868C187.477 131.897 187.135 131.583 186.924 131.247C186.086 129.913 186.53 128.168 187.113 126.697C187.688 125.253 188.372 123.855 189.16 122.515C189.36 122.174 189.592 121.876 189.768 121.546C189.894 121.321 189.981 121.076 190.025 120.822ZM184.544 107.986C184.544 107.431 184.938 107.381 185.258 107.579C185.428 107.683 185.555 107.844 185.616 108.034C185.716 108.389 185.315 109.713 185.584 109.906C185.158 109.599 184.933 109.094 184.724 108.614C184.623 108.418 184.56 108.205 184.539 107.986H184.544ZM175.532 95.512C175.517 95.9995 175.462 96.4849 175.369 96.9635C175.323 97.1637 174.87 98.2535 174.95 98.3809C174.722 98.0146 174.722 97.5528 174.75 97.1205C174.795 95.9815 174.842 94.8439 174.891 93.7079C174.891 93.6146 174.891 93.5191 174.891 93.4258C174.891 93.1983 174.829 91.7673 175.057 91.6717C175.11 91.6591 175.165 91.6591 175.218 91.6717C175.597 91.7145 175.971 91.7906 176.335 91.8992C176.483 91.9311 175.553 95.2003 175.532 95.512ZM177.214 81.8252C177.214 82.3416 177.191 82.8603 177.166 83.3813C177.117 84.0411 177.054 84.7001 176.977 85.3584C176.861 86.3571 176.882 87.3559 176.779 88.3615C176.353 88.2103 175.898 88.1574 175.448 88.2068C175.414 87.2057 175.421 86.2274 175.448 85.231C175.503 83.7681 175.562 82.3098 175.373 80.8537C175.373 80.8241 175.373 80.7968 175.357 80.7695C175.527 80.5217 175.608 80.223 175.585 79.9232C175.603 78.4762 175.812 77.0293 175.585 75.5824C175.56 75.4729 175.541 75.362 175.53 75.2502C176.074 74.3402 175.739 73.2686 175.871 72.2926C175.871 72.238 175.871 72.1834 175.858 72.1311C175.931 72.1439 175.999 72.1744 176.058 72.2198C176.177 72.4971 176.277 72.7822 176.358 73.0729C177.157 75.9395 177.284 78.8926 177.214 81.8252Z" fill="#7B4CDF"/>
<path d="M63.9855 145.849C63.2757 145.758 63.1187 146.32 63.03 146.873C62.9595 147.303 62.9072 147.735 62.8457 148.168C62.4271 150.261 62.0077 152.354 61.5876 154.449C60.7049 157.363 60.1839 160.444 57.7905 162.655C55.9955 163.715 54.1504 164.102 52.1028 163.338C50.8834 162.883 49.962 162.05 48.9996 161.247C46.5935 157.804 44.8413 153.948 43.8306 149.872C41.8013 141.533 39.7355 133.204 37.9155 124.821C36.0021 116.073 35.7746 107.232 37.7425 98.4161C38.35 95.6861 39.392 93.2221 41.6579 91.4385C43.1049 90.3009 45.6143 89.4137 47.357 90.2759C49.1543 91.1677 50.2031 93.1266 51.1041 94.8261C51.914 96.3504 52.7285 97.8861 53.2381 99.5355C53.5771 100.634 53.7909 101.811 54.4507 102.748C54.4953 102.831 54.5581 102.904 54.6345 102.96C54.7109 103.016 54.799 103.054 54.8921 103.071C55.1696 103.071 55.3471 102.771 55.4062 102.502C55.8408 100.873 55.3812 98.1795 54.8989 96.5711C54.8178 96.2819 54.7198 95.9978 54.6054 95.7202C53.8668 93.8849 52.845 92.1769 51.5773 90.6581C50.822 89.7231 49.3022 87.787 47.7256 86.9748C47.3119 86.6276 46.8619 86.3263 46.3833 86.0761L46.3059 86.0397C45.7146 85.7323 45.0542 85.5819 44.388 85.6029C43.111 85.2187 41.7439 85.2578 40.4908 85.7144C39.8945 85.9296 39.3182 86.1968 38.7686 86.5129C38.6071 86.5994 38.4478 86.6927 38.2954 86.7905C35.877 87.6186 34.0455 90.1553 32.7328 92.4782C32.139 93.2836 31.7341 94.2459 31.3519 95.1582C25.8553 106.886 25.7643 120.851 27.7686 133.459C28.2487 136.48 29.1928 139.447 30.0118 142.412C30.9082 145.663 32.1641 148.805 33.4244 151.908C34.7303 155.118 37.5355 158.262 39.7583 160.876C41.0255 162.371 42.386 163.82 44.0377 164.876C47.0499 166.798 51.5454 168.379 55.0763 167.46C60.6071 166.018 62.9345 161.923 63.8832 156.701C64.5657 154.783 64.5657 152.779 64.6248 150.786C64.9707 149.553 64.7545 148.284 64.8159 147.039C64.8433 146.473 64.6112 145.931 63.9855 145.849Z" fill="#7B4CDF"/>
</svg>
