<svg id="SvgjsSvg1001" width="288" height="288" xmlns="http://www.w3.org/2000/svg" version="1.1" xmlns:xlink="http://www.w3.org/1999/xlink" xmlns:svgjs="http://svgjs.com/svgjs"><defs id="SvgjsDefs1002"></defs><g id="SvgjsG1008"><svg xmlns="http://www.w3.org/2000/svg" viewBox="0 0 32 32" width="288" height="288"><g data-name="Layer 2"><path fill="#7b4cdf" d="M27,16a4.956,4.956,0,0,1,1.64-3.679,1.042,1.042,0,0,0,.36-.766V9a1,1,0,0,0-1-1H4A1,1,0,0,0,3,9v2.555a1.042,1.042,0,0,0,.36.766,4.947,4.947,0,0,1,0,7.358,1.042,1.042,0,0,0-.36.766V23a1,1,0,0,0,1,1H28a1,1,0,0,0,1-1V20.445a1.042,1.042,0,0,0-.36-.766A4.956,4.956,0,0,1,27,16Z" class="colorbbf svgShape"></path><path fill="#c7c0d2" d="M19,13.167a1,1,0,0,0-1,1v3.666a1,1,0,0,0,2,0V14.167A1,1,0,0,0,19,13.167Z" class="color4c46c8 svgShape"></path><path fill="#c7c0d2" d="M30,11.555V9a2,2,0,0,0-2-2H4A2,2,0,0,0,2,9v2.555a2.019,2.019,0,0,0,.687,1.506A3.936,3.936,0,0,1,4,16a3.934,3.934,0,0,1-1.312,2.938A2.02,2.02,0,0,0,2,20.445V23a2,2,0,0,0,2,2H28a2,2,0,0,0,2-2V20.445a2.016,2.016,0,0,0-.688-1.506,3.947,3.947,0,0,1,0-5.877A2.02,2.02,0,0,0,30,11.555Zm-2.033.027A5.942,5.942,0,0,0,28,20.445V23H20V21.5a1,1,0,0,0-2,0V23H4l.033-2.582A5.992,5.992,0,0,0,6,16a6.006,6.006,0,0,0-2-4.445V9H18v1.5a1,1,0,0,0,2,0V9h8Z" class="color4c46c8 svgShape"></path></g></svg></g></svg>