<svg width="20" height="20" viewBox="0 0 20 20" fill="none" xmlns="http://www.w3.org/2000/svg">
<path fill-rule="evenodd" clip-rule="evenodd" d="M3.33301 8.73832C3.33301 5.28842 6.34782 2.5 9.99453 2.5C13.6515 2.5 16.6663 5.28842 16.6663 8.73832C16.6663 10.4768 16.0052 12.0907 14.9169 13.4587C13.7164 14.9676 12.2367 16.2823 10.5711 17.3143C10.1899 17.5528 9.84585 17.5708 9.42748 17.3143C7.75241 16.2823 6.27268 14.9676 5.08242 13.4587C3.99339 12.0907 3.33301 10.4768 3.33301 8.73832ZM7.79883 8.93197C7.79883 10.0877 8.78505 10.9967 9.99429 10.9967C11.2043 10.9967 12.2 10.0877 12.2 8.93197C12.2 7.78525 11.2043 6.83203 9.99429 6.83203C8.78505 6.83203 7.79883 7.78525 7.79883 8.93197Z" fill="#8C8994"/>
</svg>
