<svg width="30" height="30" viewBox="0 0 30 30" fill="none" xmlns="http://www.w3.org/2000/svg">
<path d="M21.6996 15.7818C21.6717 12.6205 24.237 11.1028 24.3531 11.0288C22.9095 8.87985 20.6629 8.58545 19.8614 8.55081C17.9506 8.35402 16.131 9.69535 15.1624 9.69535C14.1939 9.69535 12.6961 8.57915 11.1117 8.61064C9.02605 8.64213 7.10591 9.84335 6.03212 11.742C3.86752 15.5629 5.47975 21.2258 7.58711 24.3273C8.61912 25.8434 9.84763 27.5515 11.463 27.4885C13.0195 27.4256 13.6074 26.4652 15.4858 26.4652C17.3642 26.4652 17.8933 27.4885 19.538 27.4586C21.2106 27.4256 22.272 25.9095 23.2963 24.3887C24.4784 22.6286 24.9673 20.9251 24.9952 20.8354C24.9581 20.8196 21.7336 19.5617 21.6996 15.7818" fill="#071731"/>
<path d="M18.6085 6.49911C19.4657 5.44273 20.0444 3.97384 19.885 2.50977C18.6502 2.5602 17.1556 3.34733 16.269 4.40372C15.4753 5.33734 14.779 6.83292 14.9677 8.26719C16.3448 8.37582 17.7512 7.55394 18.6085 6.49911" fill="#071731"/>
</svg>
