<svg width="18" height="19" viewBox="0 0 18 19" fill="none" xmlns="http://www.w3.org/2000/svg">
<path d="M6.9369 9.5303C6.94358 8.82333 7.14044 8.13014 7.50822 7.51862C7.876 6.90709 8.40207 6.3982 9.03496 6.04175C9.16093 5.94573 9.31053 5.88281 9.46919 5.85916C9.62785 5.8355 9.79015 5.85189 9.94029 5.90674C10.0904 5.9616 10.2233 6.05304 10.3259 6.17216C10.4285 6.29127 10.4974 6.43399 10.5258 6.58643C10.6807 7.02502 10.8681 7.45317 11.0184 7.89325C11.0584 8.02536 11.134 8.14489 11.2373 8.23975C11.3407 8.33462 11.4682 8.40145 11.607 8.43346C12.067 8.56122 12.5271 8.6875 12.9848 8.8205C13.0449 8.83146 13.1022 8.8539 13.1533 8.88649C13.2043 8.91908 13.2481 8.96117 13.2821 9.0103C13.3161 9.05943 13.3396 9.11459 13.3511 9.17258C13.3627 9.23057 13.3622 9.29021 13.3496 9.348C13.3426 9.41036 13.3218 9.47056 13.2886 9.52451C13.2555 9.57846 13.2107 9.62492 13.1573 9.66075C13.104 9.69659 13.0432 9.72097 12.9793 9.73224C12.9153 9.7435 12.8496 9.7414 12.7865 9.72608C12.3257 9.66406 11.8664 9.59457 11.4095 9.50939C11.0669 9.45985 10.742 9.33028 10.4631 9.13195C10.1842 8.93362 9.95985 8.67254 9.80944 8.37143C9.73199 8.222 9.63749 8.0793 9.53603 7.90894C9.17986 8.24377 8.94059 8.67727 8.85141 9.14926C8.79487 9.36594 8.85138 9.46903 9.07443 9.543C9.73739 9.76192 10.3957 9.9958 11.0509 10.2364C11.1814 10.2666 11.3019 10.3281 11.4013 10.4152C11.5007 10.5022 11.5758 10.6119 11.6196 10.7343C11.6635 10.8567 11.6746 10.9878 11.6521 11.1155C11.6296 11.2431 11.5741 11.3632 11.4908 11.4648C11.1624 11.9878 10.8108 12.4973 10.4631 13.0092C10.2168 13.3715 10.2122 13.3685 10.4631 13.7362C10.4786 13.7586 10.5057 13.7817 10.5057 13.8041C10.5057 13.9244 10.5436 14.0829 10.4801 14.1546C10.4334 14.199 10.3766 14.2324 10.3143 14.2521C10.2519 14.2718 10.1857 14.2773 10.1208 14.2681C9.78658 14.1768 9.45948 14.063 9.14184 13.9274C9.08005 13.908 9.0236 13.8754 8.97663 13.8321C8.92966 13.7887 8.89336 13.7358 8.87046 13.6771C8.84756 13.6184 8.83864 13.5555 8.84432 13.4931C8.85 13.4306 8.87017 13.3702 8.90331 13.3163C9.1465 12.7519 9.39042 12.1875 9.63515 11.6232C9.65529 11.5761 9.67002 11.5275 9.69093 11.4737C9.17281 11.3243 8.66632 11.1793 8.16523 11.0254C7.94469 10.9664 7.73226 10.8821 7.53247 10.7744C7.32172 10.6423 7.15398 10.4554 7.0486 10.2352C6.94322 10.0151 6.90451 9.77074 6.9369 9.5303Z" fill="#7B4CDF"/>
<path d="M5.74653 10.2069C5.29501 10.2121 4.84271 10.2024 4.39119 10.2114C4.20406 10.2153 4.01778 10.237 3.8351 10.2764C3.45109 10.3546 3.09704 10.5339 2.81216 10.7944C2.52728 11.0548 2.32271 11.3863 2.22109 11.752L2.05848 12.222L1.96091 12.2108C1.81733 11.8881 1.76398 11.5348 1.80625 11.186C1.84851 10.8373 1.98485 10.5053 2.20171 10.2233C1.76645 10.1329 1.55041 9.9349 1.54266 9.59419C1.52201 8.71302 1.50811 7.8316 1.50088 6.94993C1.4963 6.86705 1.50965 6.78415 1.54011 6.70652C1.57058 6.62889 1.61744 6.55823 1.67776 6.49905C1.73809 6.43986 1.81054 6.39345 1.89048 6.36276C1.97043 6.33207 2.05607 6.31778 2.14206 6.3208C3.09415 6.31234 4.04633 6.31234 4.99843 6.3208C5.18551 6.32073 5.36626 6.38599 5.50734 6.50452C5.64843 6.62305 5.74028 6.78684 5.76591 6.96562C5.9394 7.83633 6.11053 8.70804 6.27936 9.58074C6.30227 9.65734 6.3055 9.73817 6.28882 9.81626C6.27213 9.89435 6.23603 9.96734 6.18359 10.029C6.13115 10.0906 6.06394 10.139 5.9878 10.17C5.91166 10.201 5.82888 10.2136 5.74653 10.2069Z" fill="#7B4CDF"/>
<path d="M13.1834 11.0352C13.3267 10.9657 13.3848 10.8992 13.3236 10.7445C13.28 10.6228 13.2469 10.4979 13.2245 10.3709C13.1827 10.1722 13.2523 10.0362 13.4072 9.99733C13.5768 9.95325 13.7116 10.0429 13.7681 10.2432C13.8193 10.4232 13.8649 10.6055 13.9176 10.8065C14.1059 10.7964 14.2947 10.7964 14.483 10.8065C14.9491 10.8621 15.3864 11.054 15.7361 11.3564C16.0858 11.6588 16.3313 12.0572 16.4393 12.4981C16.5465 12.94 16.5116 13.4029 16.3392 13.8251C16.1668 14.2473 15.8651 14.6088 15.4743 14.8615C15.0834 15.1108 14.6228 15.2388 14.1543 15.2282C13.6859 15.2177 13.2319 15.0691 12.8535 14.8024C12.5378 14.577 12.2872 14.2774 12.1254 13.9322C11.9636 13.5869 11.896 13.2075 11.9291 12.83C11.9621 12.4525 12.0947 12.0894 12.3143 11.7752C12.5338 11.4611 12.833 11.2063 13.1834 11.0352ZM12.9178 13.4784C13.038 13.789 13.2738 14.0452 13.5792 14.1972C13.8846 14.3491 14.2378 14.3859 14.5697 14.3003C14.9093 14.2094 15.2002 13.9973 15.3836 13.707C15.5669 13.4167 15.629 13.07 15.5572 12.7372C15.4919 12.4277 15.3122 12.1517 15.0516 11.9605C14.791 11.7693 14.4673 11.676 14.1407 11.6979C14.2019 11.9265 14.2568 12.1514 14.3265 12.3704C14.3382 12.4085 14.404 12.4346 14.4536 12.4585C14.534 12.4919 14.6062 12.5414 14.6654 12.6036C14.7246 12.6659 14.7694 12.7396 14.7969 12.8198C14.8244 12.9 14.834 12.9849 14.825 13.0689C14.816 13.153 14.7887 13.2342 14.7447 13.3073C14.7031 13.3772 14.6472 13.4382 14.5805 13.4867C14.5137 13.5351 14.4375 13.5701 14.3564 13.5894C14.2753 13.6088 14.191 13.6121 14.1085 13.5992C14.0261 13.5862 13.9472 13.5574 13.8766 13.5143C13.8037 13.4679 13.7416 13.4074 13.6942 13.3368C13.6468 13.2661 13.615 13.1867 13.601 13.1036C13.5869 13.0204 13.5909 12.9354 13.6126 12.8539C13.6343 12.7723 13.6733 12.6959 13.7271 12.6296C13.767 12.5655 13.7821 12.4898 13.7697 12.4159C13.7317 12.2194 13.6729 12.0274 13.6148 11.8182C13.3048 11.9611 13.0614 12.2106 12.9324 12.5178C12.8034 12.8251 12.7982 13.1677 12.9178 13.4784Z" fill="#7B4CDF"/>
<path d="M4.89973 10.8C5.20161 10.7962 5.50121 10.8506 5.78105 10.9599C6.06088 11.0692 6.31531 11.2312 6.52943 11.4365C6.74356 11.6419 6.91314 11.8863 7.02814 12.1556C7.14313 12.4249 7.20125 12.7136 7.19916 13.0049C7.20182 13.296 7.14475 13.5847 7.03126 13.8545C6.91776 14.1242 6.75006 14.3696 6.53785 14.5766C6.32563 14.7835 6.07311 14.9479 5.79475 15.0603C5.5164 15.1727 5.21775 15.2309 4.91599 15.2315C4.61418 15.2319 4.3153 15.1747 4.03648 15.0632C3.75765 14.9518 3.50436 14.7882 3.2913 14.582C3.07825 14.3757 2.90957 14.1308 2.79496 13.8615C2.68036 13.5921 2.62213 13.3036 2.62356 13.0124C2.62212 12.428 2.86092 11.867 3.28762 11.4522C3.71431 11.0375 4.29404 10.803 4.89973 10.8ZM4.91675 14.3476C5.28232 14.3437 5.63172 14.2014 5.88958 13.9513C6.14744 13.7013 6.29314 13.3636 6.29535 13.0109C6.29271 12.6575 6.14601 12.3194 5.88703 12.0696C5.62805 11.8197 5.27761 11.6782 4.91136 11.6757C4.73026 11.6764 4.55107 11.7116 4.3842 11.7795C4.21733 11.8474 4.0661 11.9466 3.9392 12.0712C3.81229 12.1959 3.71225 12.3436 3.64489 12.5058C3.57752 12.6679 3.54419 12.8414 3.54675 13.0161C3.54428 13.1906 3.57785 13.3638 3.64555 13.5257C3.71326 13.6875 3.81375 13.8347 3.94109 13.9587C4.06842 14.0826 4.22 14.1809 4.38713 14.2476C4.55426 14.3144 4.73359 14.3484 4.91448 14.3476H4.91675Z" fill="#7B4CDF"/>
<path d="M12.9437 4.74748C12.4893 4.66321 12.0405 4.55268 11.5999 4.41649C11.3103 4.33355 11.1554 4.42172 11.1964 4.71013C11.24 4.95486 11.2966 5.19726 11.366 5.43638C11.3846 5.52961 11.4304 5.61582 11.4981 5.68478C11.5657 5.75374 11.6524 5.80264 11.7479 5.8257C12.1421 5.92731 12.537 6.02594 12.9351 6.11186C13.121 6.15146 13.1675 6.21198 13.049 6.36291C12.9753 6.47498 12.8668 6.5617 12.739 6.61068C12.6112 6.65966 12.4705 6.66839 12.3372 6.63562C11.8519 6.52542 11.3754 6.38184 10.9114 6.20599C10.6067 6.0822 10.3498 5.8697 10.1764 5.59818C10.0029 5.32666 9.9217 5.00968 9.94407 4.69148C9.97795 4.50726 10.0285 4.32625 10.0951 4.15053C10.223 3.86184 10.4408 3.61867 10.7183 3.45479C10.9959 3.29091 11.3194 3.21446 11.6441 3.23598C11.9934 3.2542 12.3295 3.37123 12.6103 3.57254C12.8912 3.77385 13.1043 4.05047 13.2232 4.36792C13.3386 4.67277 13.2682 4.79754 12.9437 4.74748Z" fill="#7B4CDF"/>
<path d="M15.0364 10.3366C14.8431 10.2861 14.6566 10.2141 14.4804 10.1221C14.3343 10.0486 14.2122 9.9374 14.1279 9.80084C14.0435 9.66429 14.0001 9.50778 14.0025 9.34882C14.0009 9.10856 14.0763 8.87371 14.2184 8.67641C14.3605 8.47911 14.5624 8.32904 14.7964 8.24675C14.8482 8.20789 14.9087 8.18109 14.973 8.16845C15.0373 8.1558 15.1038 8.15764 15.1673 8.17383C15.2308 8.19003 15.2895 8.22013 15.3389 8.2618C15.3884 8.30347 15.4272 8.35561 15.4524 8.41412C15.6571 8.73451 15.756 9.10743 15.7358 9.48333C15.6912 9.69495 15.6317 9.9034 15.5577 10.1072C15.5438 10.1584 15.5183 10.206 15.483 10.2465C15.4477 10.287 15.4035 10.3194 15.3536 10.3414C15.3037 10.3634 15.2493 10.3743 15.1945 10.3735C15.1396 10.3727 15.0856 10.3601 15.0364 10.3366Z" fill="#7B4CDF"/>
<path d="M11.514 4.5496C11.5465 4.53989 11.6441 4.62431 11.6495 4.67437C11.655 4.72443 11.5937 4.79467 11.5302 4.91347C11.4427 4.80364 11.3591 4.74385 11.3645 4.68931C11.3699 4.63476 11.4512 4.56454 11.514 4.5496Z" fill="#7B4CDF"/>
<path d="M4.87881 12.4123C4.96386 12.4072 5.0491 12.4189 5.12935 12.4465C5.20959 12.4742 5.28317 12.5172 5.34566 12.5731C5.40815 12.629 5.45822 12.6965 5.49286 12.7716C5.5275 12.8467 5.54602 12.9278 5.54722 13.01C5.54688 13.1693 5.48338 13.3224 5.36977 13.438C5.25615 13.5536 5.10097 13.6229 4.93611 13.6317C4.85255 13.634 4.76931 13.6203 4.69124 13.5914C4.61318 13.5626 4.54187 13.5192 4.48127 13.4636C4.42067 13.4081 4.37198 13.3415 4.33813 13.2678C4.30428 13.194 4.28587 13.1146 4.28396 13.0339C4.27991 12.9553 4.29214 12.8766 4.31998 12.8025C4.34782 12.7285 4.39071 12.6605 4.4461 12.6026C4.50148 12.5448 4.56826 12.4981 4.64256 12.4654C4.71685 12.4327 4.7972 12.4147 4.87881 12.4123Z" fill="#7B4CDF"/>
</svg>
