<svg width="18" height="18" viewBox="0 0 18 18" fill="none" xmlns="http://www.w3.org/2000/svg">
<path fill-rule="evenodd" clip-rule="evenodd" d="M7.35205 11.0648C7.82041 11.3823 8.39121 11.5743 8.99861 11.5743C10.6086 11.5743 11.9185 10.2526 11.9185 8.62816C11.9185 8.0153 11.7282 7.43936 11.4136 6.9668L10.6159 7.77163C10.7476 8.02268 10.8208 8.31804 10.8208 8.62816C10.8208 9.63974 10.0012 10.4667 8.99861 10.4667C8.69125 10.4667 8.39853 10.3929 8.14972 10.26L7.35205 11.0648ZM13.8211 4.53714C14.8822 5.5118 15.7823 6.82612 16.4556 8.40625C16.5141 8.54655 16.5141 8.70899 16.4556 8.8419C14.8895 12.519 12.1014 14.7194 8.99851 14.7194H8.9912C7.57881 14.7194 6.22498 14.2542 5.03214 13.4051L3.61244 14.8376C3.50267 14.9483 3.36362 15 3.22458 15C3.08554 15 2.93918 14.9483 2.83673 14.8376C2.65377 14.653 2.6245 14.3576 2.77086 14.1435L2.79282 14.1139L13.6162 3.19328C13.6308 3.17851 13.6455 3.16375 13.6528 3.14898C13.6674 3.13421 13.6821 3.11944 13.6894 3.10468L14.3773 2.4106C14.5968 2.19647 14.9408 2.19647 15.153 2.4106C15.3725 2.62473 15.3725 2.97915 15.153 3.19328L13.8211 4.53714ZM6.07377 8.63169C6.07377 8.82366 6.09573 9.01564 6.125 9.19285L3.41733 11.9249C2.68552 11.0683 2.04885 10.0346 1.54391 8.84582C1.48536 8.71291 1.48536 8.55046 1.54391 8.41017C3.10997 4.73303 5.89814 2.54004 8.99367 2.54004H9.00099C10.0475 2.54004 11.0647 2.79109 12.0014 3.26365L9.55716 5.72985C9.38153 5.70031 9.19126 5.67816 9.00099 5.67816C7.3837 5.67816 6.07377 6.99986 6.07377 8.63169Z" fill="#071731"/>
</svg>
