<svg width="18" height="18" viewBox="0 0 18 18" fill="none" xmlns="http://www.w3.org/2000/svg">
<path d="M9 3.75C5.59091 3.75 2.67955 5.927 1.5 9C2.67955 12.073 5.59091 14.25 9 14.25C12.4091 14.25 15.3205 12.073 16.5 9C15.3205 5.927 12.4091 3.75 9 3.75ZM9 12.5C7.11818 12.5 5.59091 10.932 5.59091 9C5.59091 7.068 7.11818 5.5 9 5.5C10.8818 5.5 12.4091 7.068 12.4091 9C12.4091 10.932 10.8818 12.5 9 12.5ZM9 6.9C7.86818 6.9 6.95455 7.838 6.95455 9C6.95455 10.162 7.86818 11.1 9 11.1C10.1318 11.1 11.0455 10.162 11.0455 9C11.0455 7.838 10.1318 6.9 9 6.9Z" fill="#8C8994"/>
</svg>
