<svg width="16" height="16" viewBox="0 0 16 16" fill="none" xmlns="http://www.w3.org/2000/svg">
<path d="M12.0236 9.23805L12.0236 13.9985" stroke="#7B4CDF" stroke-width="1.3" stroke-linecap="round" stroke-linejoin="round"/>
<path fill-rule="evenodd" clip-rule="evenodd" d="M12.0235 2.0001C13.1151 2.0001 14.0001 2.84861 14.0001 3.89531C14.0001 4.94202 13.1151 5.79053 12.0235 5.79053C10.931 5.79053 10.0469 4.94202 10.0469 3.89531C10.0469 2.84861 10.931 2.0001 12.0235 2.0001Z" stroke="#7B4CDF" stroke-width="1.3" stroke-linecap="round" stroke-linejoin="round"/>
<path d="M3.97672 6.76025L3.97672 1.99899" stroke="#7B4CDF" stroke-width="1.3" stroke-linecap="round" stroke-linejoin="round"/>
<path fill-rule="evenodd" clip-rule="evenodd" d="M3.97661 14C5.06908 14 5.95323 13.1515 5.95323 12.1048C5.95323 11.0581 5.06908 10.2096 3.97661 10.2096C2.88495 10.2096 2 11.0581 2 12.1048C2 13.1515 2.88495 14 3.97661 14Z" stroke="#7B4CDF" stroke-width="1.3" stroke-linecap="round" stroke-linejoin="round"/>
</svg>
