<svg width="25" height="26" viewBox="0 0 25 26" fill="none" xmlns="http://www.w3.org/2000/svg">
<g clip-path="url(#clip0_2674_3823)">
<path d="M24.2501 13.289C24.2501 12.4393 24.1833 11.585 24.0409 10.749H12.6133V15.5625H19.1573C18.8858 17.115 18.0132 18.4883 16.7356 19.361V22.4843H20.6398C22.9324 20.3072 24.2501 17.092 24.2501 13.289Z" fill="#4285F4"/>
<path d="M12.6132 25.5022C15.8808 25.5022 18.6364 24.3953 20.6442 22.4845L16.74 19.3613C15.6538 20.1237 14.2515 20.5555 12.6177 20.5555C9.45696 20.5555 6.77702 18.3554 5.81544 15.3975H1.78662V18.6172C3.84332 22.8382 8.0324 25.5022 12.6132 25.5022Z" fill="#34A853"/>
<path d="M5.8107 15.3953C5.30321 13.8429 5.30321 12.1618 5.8107 10.6094V7.38965H1.78634C0.0679663 10.9217 0.0679663 15.083 1.78634 18.6151L5.8107 15.3953Z" fill="#FBBC04"/>
<path d="M12.6132 5.44756C14.3405 5.42 16.0099 6.09059 17.2608 7.32153L20.7198 3.75273C18.5296 1.63073 15.6226 0.464098 12.6132 0.500842C8.0324 0.500842 3.84332 3.16481 1.78662 7.39042L5.81099 10.6102C6.76811 7.64764 9.45251 5.44756 12.6132 5.44756Z" fill="#EA4335"/>
</g>
<defs>
<clipPath id="clip0_2674_3823">
<rect width="23.75" height="25" fill="white" transform="translate(0.5 0.5)"/>
</clipPath>
</defs>
</svg>
