<svg width="24" height="24" viewBox="0 0 24 24" fill="none" xmlns="http://www.w3.org/2000/svg">
<ellipse cx="12.0054" cy="6.9713" rx="5.04642" ry="4.9713" stroke="#071731" stroke-width="1.5" stroke-linecap="round" stroke-linejoin="round"/>
<path fill-rule="evenodd" clip-rule="evenodd" d="M4.00002 18.8568C3.99866 18.5073 4.078 18.1621 4.23204 17.8473C4.71541 16.8949 6.07852 16.3901 7.20962 16.1616C8.02536 15.9901 8.85238 15.8755 9.68449 15.8187C11.2251 15.6854 12.7746 15.6854 14.3152 15.8187C15.1473 15.8762 15.9742 15.9907 16.7901 16.1616C17.9212 16.3901 19.2843 16.8473 19.7677 17.8473C20.0774 18.489 20.0774 19.234 19.7677 19.8758C19.2843 20.8757 17.9212 21.3329 16.7901 21.5519C15.9753 21.7305 15.148 21.8483 14.3152 21.9043C13.0613 22.009 11.8015 22.0281 10.5449 21.9614C10.2549 21.9614 9.97452 21.9614 9.68449 21.9043C8.85483 21.849 8.03069 21.7312 7.21929 21.5519C6.07852 21.3329 4.72508 20.8757 4.23204 19.8758C4.07879 19.5573 3.99953 19.2092 4.00002 18.8568Z" stroke="#071731" stroke-width="1.5" stroke-linecap="round" stroke-linejoin="round"/>
</svg>
