<svg width="20" height="20" viewBox="0 0 20 20" fill="none" xmlns="http://www.w3.org/2000/svg">
<path fill-rule="evenodd" clip-rule="evenodd" d="M7.64415 0.00792976C7.86723 -0.0240483 8.09131 0.0419064 8.26958 0.183809C8.45282 0.32771 8.56735 0.535567 8.59225 0.768408C8.64503 1.23908 8.30543 1.66479 7.83536 1.71776C4.5937 2.07951 2.07407 4.60477 1.70957 7.85654C1.66077 8.29224 1.29528 8.62101 0.859072 8.62101C0.826208 8.62101 0.794338 8.61902 0.761475 8.61502C0.533413 8.59004 0.330248 8.47711 0.186838 8.29724C0.0444241 8.11736 -0.0203094 7.89351 0.00558472 7.66467C0.459717 3.60746 3.59979 0.45862 7.64415 0.00792976ZM7.58271 3.48976C8.05875 3.40182 8.49596 3.70561 8.58658 4.17029C8.67721 4.63497 8.37246 5.08866 7.90937 5.1796C6.51511 5.45141 5.43854 6.53067 5.16566 7.92971V7.93071C5.08798 8.33343 4.73344 8.62623 4.32512 8.62623C4.27034 8.62623 4.21557 8.62124 4.1598 8.61124C3.6967 8.51831 3.39196 8.06562 3.48259 7.59994C3.88991 5.51037 5.49829 3.89648 7.58271 3.48976ZM6.00091 13.0912C5.54943 12.8309 5.03953 12.5369 4.3963 12.6737C3.8137 12.7966 1.82787 14.4085 1.28411 14.9671C0.927572 15.3329 0.729389 15.7106 0.698517 16.0883C0.644737 17.5703 2.65845 19.2622 3.02494 19.473C3.51194 19.8238 4.07861 20.0007 4.71499 20.0007C5.36531 20.0007 6.09033 19.8158 6.88107 19.447C11.1714 17.6563 17.7254 11.2317 19.4583 6.9746C20.1774 5.38968 20.1823 4.08258 19.4703 3.10026C19.1864 2.63957 17.5681 0.713895 16.1191 0.774853C15.7336 0.80783 15.3592 1.00569 14.9917 1.36545C14.436 1.91007 12.8645 3.90171 12.743 4.4863C12.6085 5.13586 12.9033 5.6525 13.1652 6.10619C13.2211 6.20372 13.2963 6.31946 13.3788 6.44626C13.6918 6.92748 14.1083 7.568 13.9609 7.97691C12.9043 10.5711 10.4633 12.8346 7.86801 13.8978C7.46666 14.0437 6.8265 13.6242 6.34682 13.3098C6.22185 13.2279 6.10777 13.1532 6.01165 13.0974L6.00091 13.0912Z" fill="#8C8994"/>
</svg>
