<svg width="12" height="12" viewBox="0 0 12 12" fill="none" xmlns="http://www.w3.org/2000/svg">
<path d="M6.00033 0.166504C6.19371 0.166504 6.37918 0.243327 6.51592 0.380072C6.65267 0.516817 6.72949 0.702284 6.72949 0.895671V5.27067H11.1045C11.2979 5.27067 11.4833 5.34749 11.6201 5.48424C11.7568 5.62098 11.8337 5.80645 11.8337 5.99984C11.8337 6.19322 11.7568 6.37869 11.6201 6.51544C11.4833 6.65218 11.2979 6.729 11.1045 6.729H6.72949V11.104C6.72949 11.2974 6.65267 11.4829 6.51592 11.6196C6.37918 11.7563 6.19371 11.8332 6.00033 11.8332C5.80694 11.8332 5.62147 11.7563 5.48473 11.6196C5.34798 11.4829 5.27116 11.2974 5.27116 11.104V6.729H0.896159C0.702772 6.729 0.517306 6.65218 0.38056 6.51544C0.243815 6.37869 0.166992 6.19322 0.166992 5.99984C0.166992 5.80645 0.243815 5.62098 0.38056 5.48424C0.517306 5.34749 0.702772 5.27067 0.896159 5.27067H5.27116V0.895671C5.27116 0.702284 5.34798 0.516817 5.48473 0.380072C5.62147 0.243327 5.80694 0.166504 6.00033 0.166504V0.166504Z" fill="white"/>
</svg>
