<svg width="24" height="24" viewBox="0 0 24 24" fill="none" xmlns="http://www.w3.org/2000/svg">
<g clip-path="url(#clip0_2758_12213)">
<path d="M12 24C18.6274 24 24 18.6274 24 12C24 5.37258 18.6274 0 12 0C5.37258 0 0 5.37258 0 12C0 18.6274 5.37258 24 12 24Z" fill="#F0F0F0"/>
<path d="M12.0002 0C6.84061 0 2.4421 3.2565 0.746582 7.82611H23.2538C21.5583 3.2565 17.1598 0 12.0002 0V0Z" fill="#6DA544"/>
<path d="M12.0002 23.9999C17.1598 23.9999 21.5583 20.7434 23.2538 16.1738H0.746582C2.4421 20.7434 6.84061 23.9999 12.0002 23.9999Z" fill="black"/>
<path d="M4.96559 9.14062L5.61308 11.1334H7.70853L6.0133 12.3652L6.66083 14.358L4.96559 13.1264L3.27036 14.358L3.91789 12.3652L2.22266 11.1334H4.31811L4.96559 9.14062Z" fill="#D80027"/>
<path d="M18.7 9.09375L19.3475 11.0865H21.443L19.7477 12.3183L20.3952 14.3111L18.7 13.0795L17.0047 14.3111L17.6523 12.3183L15.957 11.0865H18.0525L18.7 9.09375Z" fill="#D80027"/>
<path d="M11.8093 9.09375L12.4568 11.0865H14.5523L12.857 12.3183L13.5046 14.3111L11.8093 13.0795L10.1141 14.3111L10.7616 12.3183L9.06641 11.0865H11.1619L11.8093 9.09375Z" fill="#D80027"/>
</g>
<defs>
<clipPath id="clip0_2758_12213">
<rect width="24" height="24" fill="white"/>
</clipPath>
</defs>
</svg>
