<svg width="18" height="19" viewBox="0 0 18 19" fill="none" xmlns="http://www.w3.org/2000/svg">
<path d="M8.08959 16.7318C7.6943 16.7319 7.30002 16.6929 6.9127 16.6154C6.16582 16.4652 5.45637 16.1721 4.82484 15.7528C3.88596 15.1306 3.15104 14.2545 2.70914 13.2305C2.55975 12.8838 2.44569 12.5234 2.36865 12.1546C2.21045 11.3922 2.21045 10.6063 2.36865 9.84389C2.52163 9.11069 2.82019 8.41424 3.24727 7.79428C3.8811 6.8726 4.77361 6.15114 5.81667 5.71733C6.16988 5.57067 6.53701 5.45871 6.9127 5.38308C7.68932 5.22778 8.48986 5.22778 9.26648 5.38308C10.0134 5.53326 10.7228 5.82635 11.3543 6.24561C12.2932 6.86782 13.0281 7.74399 13.47 8.76794C13.6194 9.11468 13.7335 9.47509 13.8105 9.84389C13.9661 10.5941 13.9685 11.3672 13.8177 12.1184C13.6884 12.7645 13.4451 13.3835 13.099 13.9475C12.5806 14.7973 11.8465 15.5005 10.9685 15.9885C10.0905 16.4765 9.09857 16.7326 8.08959 16.7318ZM10.1011 8.31374C10.0065 8.31367 9.91275 8.33194 9.82534 8.3675C9.73792 8.40307 9.65852 8.45523 9.5917 8.52099L7.55056 10.5221C7.41534 10.6551 7.33947 10.8353 7.33964 11.0232C7.33981 11.2111 7.416 11.3912 7.55145 11.524C7.68691 11.6567 7.87053 11.7312 8.06193 11.731C8.25332 11.7309 8.43681 11.6561 8.57202 11.5231L9.5917 10.5221L10.6114 9.52199C10.7133 9.42345 10.783 9.2973 10.8114 9.15968C10.8399 9.02205 10.8259 8.87922 10.7712 8.74946C10.7165 8.6197 10.6236 8.50892 10.5043 8.4313C10.3851 8.35367 10.245 8.31274 10.102 8.31374H10.1011Z" fill="#7B4CDF"/>
<path d="M5.23096 2.4818C5.23096 2.28299 5.31141 2.09231 5.45462 1.95173C5.59783 1.81114 5.79206 1.73216 5.99459 1.73216L10.5764 1.73216C10.7789 1.73216 10.9731 1.81114 11.1163 1.95173C11.2595 2.09231 11.34 2.28299 11.34 2.4818C11.34 2.68062 11.2595 2.87129 11.1163 3.01188C10.9731 3.15247 10.7789 3.23145 10.5764 3.23145L5.99459 3.23145C5.79206 3.23145 5.59783 3.15247 5.45462 3.01188C5.31141 2.87129 5.23096 2.68062 5.23096 2.4818V2.4818Z" fill="#7B4CDF"/>
<path d="M13.069 3.88117C13.2169 3.73596 13.4175 3.65437 13.6267 3.65437C13.8359 3.65437 14.0366 3.73596 14.1845 3.88117L15.192 4.87023C15.3399 5.01545 15.423 5.21241 15.423 5.41777C15.423 5.62314 15.3399 5.8201 15.192 5.96531C15.0441 6.11053 14.8435 6.19211 14.6343 6.19211C14.4251 6.19211 14.2244 6.11053 14.0765 5.96531L13.069 4.97625C12.9211 4.83103 12.838 4.63408 12.838 4.42871C12.838 4.22334 12.9211 4.02639 13.069 3.88117Z" fill="#7B4CDF"/>
</svg>
