<svg width="125" height="61" viewBox="0 0 125 61" fill="none" xmlns="http://www.w3.org/2000/svg">
<circle opacity="0.1" cx="63" cy="41" r="20" fill="#7B4CDF"/>
<circle cx="63" cy="41" r="13" fill="#7B4CDF"/>
<rect width="125" height="27" rx="13.5" fill="#071731"/>
<path d="M62.7687 32.4018C62.5811 32.7577 62.0715 32.7577 61.884 32.4018L58.6651 26.2933C58.4896 25.9604 58.7311 25.5602 59.1074 25.5602L65.5452 25.5602C65.9216 25.5602 66.163 25.9604 65.9875 26.2933L62.7687 32.4018Z" fill="#071731"/>
<path d="M18.089 10.08V17H17.179V11.84L14.879 17H14.239L11.929 11.83V17H11.019V10.08H11.999L14.559 15.8L17.119 10.08H18.089ZM22.0223 17.09C21.509 17.09 21.0423 16.9733 20.6223 16.74C20.209 16.5067 19.8823 16.1767 19.6423 15.75C19.409 15.3167 19.2923 14.8167 19.2923 14.25C19.2923 13.69 19.4123 13.1967 19.6523 12.77C19.899 12.3367 20.2323 12.0067 20.6523 11.78C21.0723 11.5467 21.5423 11.43 22.0623 11.43C22.5823 11.43 23.0523 11.5467 23.4723 11.78C23.8923 12.0067 24.2223 12.3333 24.4623 12.76C24.709 13.1867 24.8323 13.6833 24.8323 14.25C24.8323 14.8167 24.7056 15.3167 24.4523 15.75C24.2056 16.1767 23.869 16.5067 23.4423 16.74C23.0156 16.9733 22.5423 17.09 22.0223 17.09ZM22.0223 16.29C22.349 16.29 22.6556 16.2133 22.9423 16.06C23.229 15.9067 23.459 15.6767 23.6323 15.37C23.8123 15.0633 23.9023 14.69 23.9023 14.25C23.9023 13.81 23.8156 13.4367 23.6423 13.13C23.469 12.8233 23.2423 12.5967 22.9623 12.45C22.6823 12.2967 22.379 12.22 22.0523 12.22C21.719 12.22 21.4123 12.2967 21.1323 12.45C20.859 12.5967 20.639 12.8233 20.4723 13.13C20.3056 13.4367 20.2223 13.81 20.2223 14.25C20.2223 14.6967 20.3023 15.0733 20.4623 15.38C20.629 15.6867 20.849 15.9167 21.1223 16.07C21.3956 16.2167 21.6956 16.29 22.0223 16.29ZM28.0688 16.16L29.7688 11.52H30.7388L28.5888 17H27.5288L25.3788 11.52H26.3588L28.0688 16.16ZM36.6343 14.05C36.6343 14.2233 36.6243 14.4067 36.6043 14.6H32.2243C32.2576 15.14 32.4409 15.5633 32.7743 15.87C33.1143 16.17 33.5243 16.32 34.0043 16.32C34.3976 16.32 34.7243 16.23 34.9843 16.05C35.2509 15.8633 35.4376 15.6167 35.5443 15.31H36.5243C36.3776 15.8367 36.0843 16.2667 35.6443 16.6C35.2043 16.9267 34.6576 17.09 34.0043 17.09C33.4843 17.09 33.0176 16.9733 32.6043 16.74C32.1976 16.5067 31.8776 16.1767 31.6443 15.75C31.4109 15.3167 31.2943 14.8167 31.2943 14.25C31.2943 13.6833 31.4076 13.1867 31.6343 12.76C31.8609 12.3333 32.1776 12.0067 32.5843 11.78C32.9976 11.5467 33.4709 11.43 34.0043 11.43C34.5243 11.43 34.9843 11.5433 35.3843 11.77C35.7843 11.9967 36.0909 12.31 36.3043 12.71C36.5243 13.1033 36.6343 13.55 36.6343 14.05ZM35.6943 13.86C35.6943 13.5133 35.6176 13.2167 35.4643 12.97C35.3109 12.7167 35.1009 12.5267 34.8343 12.4C34.5743 12.2667 34.2843 12.2 33.9643 12.2C33.5043 12.2 33.1109 12.3467 32.7843 12.64C32.4643 12.9333 32.2809 13.34 32.2343 13.86H35.6943ZM41.6114 12.27V15.5C41.6114 15.7667 41.6681 15.9567 41.7814 16.07C41.8948 16.1767 42.0914 16.23 42.3714 16.23H43.0414V17H42.2214C41.7148 17 41.3348 16.8833 41.0814 16.65C40.8281 16.4167 40.7014 16.0333 40.7014 15.5V12.27H39.9914V11.52H40.7014V10.14H41.6114V11.52H43.0414V12.27H41.6114ZM46.534 17.09C46.0207 17.09 45.554 16.9733 45.134 16.74C44.7207 16.5067 44.394 16.1767 44.154 15.75C43.9207 15.3167 43.804 14.8167 43.804 14.25C43.804 13.69 43.924 13.1967 44.164 12.77C44.4107 12.3367 44.744 12.0067 45.164 11.78C45.584 11.5467 46.054 11.43 46.574 11.43C47.094 11.43 47.564 11.5467 47.984 11.78C48.404 12.0067 48.734 12.3333 48.974 12.76C49.2207 13.1867 49.344 13.6833 49.344 14.25C49.344 14.8167 49.2174 15.3167 48.964 15.75C48.7174 16.1767 48.3807 16.5067 47.954 16.74C47.5274 16.9733 47.054 17.09 46.534 17.09ZM46.534 16.29C46.8607 16.29 47.1674 16.2133 47.454 16.06C47.7407 15.9067 47.9707 15.6767 48.144 15.37C48.324 15.0633 48.414 14.69 48.414 14.25C48.414 13.81 48.3274 13.4367 48.154 13.13C47.9807 12.8233 47.754 12.5967 47.474 12.45C47.194 12.2967 46.8907 12.22 46.564 12.22C46.2307 12.22 45.924 12.2967 45.644 12.45C45.3707 12.5967 45.1507 12.8233 44.984 13.13C44.8174 13.4367 44.734 13.81 44.734 14.25C44.734 14.6967 44.814 15.0733 44.974 15.38C45.1407 15.6867 45.3607 15.9167 45.634 16.07C45.9074 16.2167 46.2074 16.29 46.534 16.29ZM58.2065 14.05C58.2065 14.2233 58.1965 14.4067 58.1765 14.6H53.7965C53.8299 15.14 54.0132 15.5633 54.3465 15.87C54.6865 16.17 55.0965 16.32 55.5765 16.32C55.9699 16.32 56.2965 16.23 56.5565 16.05C56.8232 15.8633 57.0099 15.6167 57.1165 15.31H58.0965C57.9499 15.8367 57.6565 16.2667 57.2165 16.6C56.7765 16.9267 56.2299 17.09 55.5765 17.09C55.0565 17.09 54.5899 16.9733 54.1765 16.74C53.7699 16.5067 53.4499 16.1767 53.2165 15.75C52.9832 15.3167 52.8665 14.8167 52.8665 14.25C52.8665 13.6833 52.9799 13.1867 53.2065 12.76C53.4332 12.3333 53.7499 12.0067 54.1565 11.78C54.5699 11.5467 55.0432 11.43 55.5765 11.43C56.0965 11.43 56.5565 11.5433 56.9565 11.77C57.3565 11.9967 57.6632 12.31 57.8765 12.71C58.0965 13.1033 58.2065 13.55 58.2065 14.05ZM57.2665 13.86C57.2665 13.5133 57.1899 13.2167 57.0365 12.97C56.8832 12.7167 56.6732 12.5267 56.4065 12.4C56.1465 12.2667 55.8565 12.2 55.5365 12.2C55.0765 12.2 54.6832 12.3467 54.3565 12.64C54.0365 12.9333 53.8532 13.34 53.8065 13.86H57.2665ZM59.0677 14.24C59.0677 13.68 59.181 13.19 59.4077 12.77C59.6344 12.3433 59.9444 12.0133 60.3377 11.78C60.7377 11.5467 61.1844 11.43 61.6777 11.43C62.1044 11.43 62.501 11.53 62.8677 11.73C63.2344 11.9233 63.5144 12.18 63.7077 12.5V9.6H64.6277V17H63.7077V15.97C63.5277 16.2967 63.261 16.5667 62.9077 16.78C62.5544 16.9867 62.141 17.09 61.6677 17.09C61.181 17.09 60.7377 16.97 60.3377 16.73C59.9444 16.49 59.6344 16.1533 59.4077 15.72C59.181 15.2867 59.0677 14.7933 59.0677 14.24ZM63.7077 14.25C63.7077 13.8367 63.6244 13.4767 63.4577 13.17C63.291 12.8633 63.0644 12.63 62.7777 12.47C62.4977 12.3033 62.1877 12.22 61.8477 12.22C61.5077 12.22 61.1977 12.3 60.9177 12.46C60.6377 12.62 60.4144 12.8533 60.2477 13.16C60.081 13.4667 59.9977 13.8267 59.9977 14.24C59.9977 14.66 60.081 15.0267 60.2477 15.34C60.4144 15.6467 60.6377 15.8833 60.9177 16.05C61.1977 16.21 61.5077 16.29 61.8477 16.29C62.1877 16.29 62.4977 16.21 62.7777 16.05C63.0644 15.8833 63.291 15.6467 63.4577 15.34C63.6244 15.0267 63.7077 14.6633 63.7077 14.25ZM66.6355 10.63C66.4622 10.63 66.3155 10.57 66.1955 10.45C66.0755 10.33 66.0155 10.1833 66.0155 10.01C66.0155 9.83667 66.0755 9.69 66.1955 9.57C66.3155 9.45 66.4622 9.39 66.6355 9.39C66.8022 9.39 66.9422 9.45 67.0555 9.57C67.1755 9.69 67.2355 9.83667 67.2355 10.01C67.2355 10.1833 67.1755 10.33 67.0555 10.45C66.9422 10.57 66.8022 10.63 66.6355 10.63ZM67.0755 11.52V17H66.1655V11.52H67.0755ZM69.7364 12.27V15.5C69.7364 15.7667 69.7931 15.9567 69.9064 16.07C70.0198 16.1767 70.2164 16.23 70.4964 16.23H71.1664V17H70.3464C69.8398 17 69.4598 16.8833 69.2064 16.65C68.9531 16.4167 68.8264 16.0333 68.8264 15.5V12.27H68.1164V11.52H68.8264V10.14H69.7364V11.52H71.1664V12.27H69.7364ZM75.845 9.6V17H74.935V9.6H75.845ZM79.786 17.09C79.2726 17.09 78.806 16.9733 78.386 16.74C77.9726 16.5067 77.646 16.1767 77.406 15.75C77.1726 15.3167 77.056 14.8167 77.056 14.25C77.056 13.69 77.176 13.1967 77.416 12.77C77.6626 12.3367 77.996 12.0067 78.416 11.78C78.836 11.5467 79.306 11.43 79.826 11.43C80.346 11.43 80.816 11.5467 81.236 11.78C81.656 12.0067 81.986 12.3333 82.226 12.76C82.4726 13.1867 82.596 13.6833 82.596 14.25C82.596 14.8167 82.4693 15.3167 82.216 15.75C81.9693 16.1767 81.6326 16.5067 81.206 16.74C80.7793 16.9733 80.306 17.09 79.786 17.09ZM79.786 16.29C80.1126 16.29 80.4193 16.2133 80.706 16.06C80.9926 15.9067 81.2226 15.6767 81.396 15.37C81.576 15.0633 81.666 14.69 81.666 14.25C81.666 13.81 81.5793 13.4367 81.406 13.13C81.2326 12.8233 81.006 12.5967 80.726 12.45C80.446 12.2967 80.1426 12.22 79.816 12.22C79.4826 12.22 79.176 12.2967 78.896 12.45C78.6226 12.5967 78.4026 12.8233 78.236 13.13C78.0693 13.4367 77.986 13.81 77.986 14.25C77.986 14.6967 78.066 15.0733 78.226 15.38C78.3926 15.6867 78.6126 15.9167 78.886 16.07C79.1593 16.2167 79.4593 16.29 79.786 16.29ZM83.4525 14.25C83.4525 13.6833 83.5658 13.19 83.7925 12.77C84.0191 12.3433 84.3325 12.0133 84.7325 11.78C85.1391 11.5467 85.6025 11.43 86.1225 11.43C86.7958 11.43 87.3491 11.5933 87.7825 11.92C88.2225 12.2467 88.5125 12.7 88.6525 13.28H87.6725C87.5791 12.9467 87.3958 12.6833 87.1225 12.49C86.8558 12.2967 86.5225 12.2 86.1225 12.2C85.6025 12.2 85.1825 12.38 84.8625 12.74C84.5425 13.0933 84.3825 13.5967 84.3825 14.25C84.3825 14.91 84.5425 15.42 84.8625 15.78C85.1825 16.14 85.6025 16.32 86.1225 16.32C86.5225 16.32 86.8558 16.2267 87.1225 16.04C87.3891 15.8533 87.5725 15.5867 87.6725 15.24H88.6525C88.5058 15.8 88.2125 16.25 87.7725 16.59C87.3325 16.9233 86.7825 17.09 86.1225 17.09C85.6025 17.09 85.1391 16.9733 84.7325 16.74C84.3325 16.5067 84.0191 16.1767 83.7925 15.75C83.5658 15.3233 83.4525 14.8233 83.4525 14.25ZM89.5267 14.24C89.5267 13.68 89.64 13.19 89.8667 12.77C90.0933 12.3433 90.4033 12.0133 90.7967 11.78C91.1967 11.5467 91.64 11.43 92.1267 11.43C92.6067 11.43 93.0233 11.5333 93.3767 11.74C93.73 11.9467 93.9933 12.2067 94.1667 12.52V11.52H95.0867V17H94.1667V15.98C93.9867 16.3 93.7167 16.5667 93.3567 16.78C93.0033 16.9867 92.59 17.09 92.1167 17.09C91.63 17.09 91.19 16.97 90.7967 16.73C90.4033 16.49 90.0933 16.1533 89.8667 15.72C89.64 15.2867 89.5267 14.7933 89.5267 14.24ZM94.1667 14.25C94.1667 13.8367 94.0833 13.4767 93.9167 13.17C93.75 12.8633 93.5233 12.63 93.2367 12.47C92.9567 12.3033 92.6467 12.22 92.3067 12.22C91.9667 12.22 91.6567 12.3 91.3767 12.46C91.0967 12.62 90.8733 12.8533 90.7067 13.16C90.54 13.4667 90.4567 13.8267 90.4567 14.24C90.4567 14.66 90.54 15.0267 90.7067 15.34C90.8733 15.6467 91.0967 15.8833 91.3767 16.05C91.6567 16.21 91.9667 16.29 92.3067 16.29C92.6467 16.29 92.9567 16.21 93.2367 16.05C93.5233 15.8833 93.75 15.6467 93.9167 15.34C94.0833 15.0267 94.1667 14.6633 94.1667 14.25ZM97.7345 12.27V15.5C97.7345 15.7667 97.7912 15.9567 97.9045 16.07C98.0178 16.1767 98.2145 16.23 98.4945 16.23H99.1645V17H98.3445C97.8378 17 97.4578 16.8833 97.2045 16.65C96.9512 16.4167 96.8245 16.0333 96.8245 15.5V12.27H96.1145V11.52H96.8245V10.14H97.7345V11.52H99.1645V12.27H97.7345ZM100.737 10.63C100.564 10.63 100.417 10.57 100.297 10.45C100.177 10.33 100.117 10.1833 100.117 10.01C100.117 9.83667 100.177 9.69 100.297 9.57C100.417 9.45 100.564 9.39 100.737 9.39C100.904 9.39 101.044 9.45 101.157 9.57C101.277 9.69 101.337 9.83667 101.337 10.01C101.337 10.1833 101.277 10.33 101.157 10.45C101.044 10.57 100.904 10.63 100.737 10.63ZM101.177 11.52V17H100.267V11.52H101.177ZM105.118 17.09C104.605 17.09 104.138 16.9733 103.718 16.74C103.305 16.5067 102.978 16.1767 102.738 15.75C102.505 15.3167 102.388 14.8167 102.388 14.25C102.388 13.69 102.508 13.1967 102.748 12.77C102.995 12.3367 103.328 12.0067 103.748 11.78C104.168 11.5467 104.638 11.43 105.158 11.43C105.678 11.43 106.148 11.5467 106.568 11.78C106.988 12.0067 107.318 12.3333 107.558 12.76C107.805 13.1867 107.928 13.6833 107.928 14.25C107.928 14.8167 107.801 15.3167 107.548 15.75C107.301 16.1767 106.965 16.5067 106.538 16.74C106.111 16.9733 105.638 17.09 105.118 17.09ZM105.118 16.29C105.445 16.29 105.751 16.2133 106.038 16.06C106.325 15.9067 106.555 15.6767 106.728 15.37C106.908 15.0633 106.998 14.69 106.998 14.25C106.998 13.81 106.911 13.4367 106.738 13.13C106.565 12.8233 106.338 12.5967 106.058 12.45C105.778 12.2967 105.475 12.22 105.148 12.22C104.815 12.22 104.508 12.2967 104.228 12.45C103.955 12.5967 103.735 12.8233 103.568 13.13C103.401 13.4367 103.318 13.81 103.318 14.25C103.318 14.6967 103.398 15.0733 103.558 15.38C103.725 15.6867 103.945 15.9167 104.218 16.07C104.491 16.2167 104.791 16.29 105.118 16.29ZM111.794 11.42C112.461 11.42 113.001 11.6233 113.414 12.03C113.828 12.43 114.034 13.01 114.034 13.77V17H113.134V13.9C113.134 13.3533 112.998 12.9367 112.724 12.65C112.451 12.3567 112.078 12.21 111.604 12.21C111.124 12.21 110.741 12.36 110.454 12.66C110.174 12.96 110.034 13.3967 110.034 13.97V17H109.124V11.52H110.034V12.3C110.214 12.02 110.458 11.8033 110.764 11.65C111.078 11.4967 111.421 11.42 111.794 11.42Z" fill="white"/>
</svg>
