<svg width="24" height="24" viewBox="0 0 24 24" fill="none" xmlns="http://www.w3.org/2000/svg">
<path fill-rule="evenodd" clip-rule="evenodd" d="M20.9982 8.89545C20.3853 5.00712 17.1813 2.11441 13.3614 2.00054C13.1798 1.9932 13.0028 2.06061 12.8694 2.18791C12.736 2.3152 12.6572 2.49194 12.6504 2.67917V2.67917V2.74251L13.0805 9.37501C13.1087 9.82149 13.4811 10.1609 13.9144 10.1351L20.3662 9.69171C20.5479 9.67785 20.7169 9.58984 20.8355 9.44717C20.9541 9.3045 21.0127 9.11895 20.9982 8.93164V8.89545Z" fill="#7B4CDF"/>
<path fill-rule="evenodd" clip-rule="evenodd" d="M8.89311 5.94526C9.30352 5.8474 9.7235 6.06386 9.89379 6.46102C9.9384 6.55443 9.96522 6.65579 9.97279 6.75961C10.0606 8.04449 10.2449 10.8586 10.3502 12.3787C10.3682 12.6525 10.4913 12.9077 10.6923 13.0877C10.8933 13.2677 11.1556 13.3577 11.4211 13.3378V13.3378L16.8371 12.994C17.0789 12.979 17.3159 13.0677 17.4921 13.239C17.6683 13.4104 17.768 13.6491 17.7676 13.8988V13.8988C17.5481 17.2701 15.1983 20.0885 11.998 20.819C8.7977 21.5496 5.51334 20.0173 3.93361 17.0567C3.46203 16.2046 3.16338 15.2626 3.05582 14.2879C3.00983 13.9888 2.99219 13.6857 3.00315 13.3831C3.01247 9.7828 5.46535 6.68069 8.88434 5.94526" fill="#7B4CDF"/>
</svg>
