<svg width="25" height="24" viewBox="0 0 25 24" fill="none" xmlns="http://www.w3.org/2000/svg">
<ellipse cx="12.5054" cy="6.9713" rx="5.04642" ry="4.9713" fill="#7B4CDF"/>
<path fill-rule="evenodd" clip-rule="evenodd" d="M4.50002 18.8568C4.49866 18.5073 4.578 18.1621 4.73204 17.8473C5.21541 16.8949 6.57852 16.3901 7.70962 16.1616C8.52536 15.9901 9.35238 15.8755 10.1845 15.8187C11.7251 15.6854 13.2746 15.6854 14.8152 15.8187C15.6473 15.8762 16.4742 15.9907 17.2901 16.1616C18.4212 16.3901 19.7843 16.8473 20.2677 17.8473C20.5774 18.489 20.5774 19.234 20.2677 19.8758C19.7843 20.8757 18.4212 21.3329 17.2901 21.5519C16.4753 21.7305 15.648 21.8483 14.8152 21.9043C13.5613 22.009 12.3015 22.0281 11.0449 21.9614C10.7549 21.9614 10.4745 21.9614 10.1845 21.9043C9.35483 21.849 8.53069 21.7312 7.71929 21.5519C6.57852 21.3329 5.22508 20.8757 4.73204 19.8758C4.57879 19.5573 4.49953 19.2092 4.50002 18.8568Z" fill="#7B4CDF"/>
</svg>
